<svg width="800" height="600" viewBox="0 0 800 600" fill="none" xmlns="http://www.w3.org/2000/svg">
<path d="M665.006 107.705C665.006 107.705 658.81 132.392 652.896 145.346C646.983 158.3 637.126 184.584 598.921 205.141C560.717 225.699 518.944 222.319 512.655 221.287V224.76L513.688 245.13H485.433L461.778 276.107C461.778 276.107 439.906 285.681 418.41 288.779C396.914 291.877 370.349 294.693 354.204 290.187C338.058 285.681 328.202 277.702 325.385 268.222C322.569 258.741 324.071 248.321 332.989 231.237C341.813 214.153 351.293 195.473 361.056 182.8C370.818 170.128 385.65 151.823 397.853 147.318C410.15 142.812 423.855 140.09 423.855 140.09L483.556 142.249C483.556 142.249 517.912 149.289 530.678 152.95C543.351 156.611 552.644 159.145 567.006 156.329C581.368 153.513 588.877 146.661 594.603 141.216C600.329 135.772 606.431 124.132 608.214 118.593C609.998 113.055 612.626 99.2564 612.626 99.2564C612.626 99.2564 617.414 107.986 636.563 110.051C655.619 112.21 663.316 110.802 665.006 107.705Z" fill="white"/>
<path d="M648.644 542.633H275.786C265.393 542.633 256.872 534.112 256.872 523.718V263.879C256.872 253.485 265.393 244.964 275.786 244.964H648.644C659.038 244.964 667.559 253.485 667.559 263.879V523.718C667.559 534.112 659.038 542.633 648.644 542.633Z" fill="white"/>
<path d="M526.356 305.172L535.252 301.52L534.971 291.408L526.543 287.85L522.798 279.329L526.918 270.808L519.802 263.504L511.562 267.437L506.318 265.752C506.318 265.752 506.037 268.654 503.134 269.122C500.138 269.497 496.205 266.969 496.205 266.969C496.205 266.969 498.64 274.46 494.426 275.958C490.213 277.456 486.842 273.898 485.156 271.932C483.471 269.872 478.883 264.253 478.883 264.253C478.883 264.253 482.441 272.868 481.973 275.49C481.504 278.111 479.07 279.797 478.227 279.984C477.385 280.171 475.605 281.482 471.954 277.737C468.302 273.898 465.493 266.688 465.493 266.688L461.654 270.808L465.68 279.891L461.841 287.662L452.196 291.97V301.801L461.467 305.079L465.68 313.693L461.841 322.776L464.182 325.117C464.182 325.117 466.523 323.525 468.395 323.525C468.395 323.525 470.362 318.469 473.171 318.469C475.98 318.469 483.096 319.218 488.153 326.428C493.209 333.638 494.894 338.694 494.894 338.694H499.576L502.854 329.518L510.813 325.21L514.277 326.802C514.277 326.802 515.307 324.087 519.802 323.712C524.296 323.338 525.794 324.648 525.794 324.648L527.105 322.495L523.453 313.693L526.356 305.172ZM494.333 311.352C486.093 311.352 479.445 304.704 479.445 296.464C479.445 288.224 486.093 281.576 494.333 281.576C502.573 281.576 509.221 288.224 509.221 296.464C509.314 304.704 502.573 311.352 494.333 311.352Z" fill="black"/>
<path d="M441.522 96.2706L437.121 90.2779L428.319 78.9479C428.319 78.9479 422.046 71.3635 423.918 62.6553C425.791 53.8536 429.724 50.4827 439.275 51.2317L438.245 49.7335C438.245 49.7335 431.409 38.2163 444.331 31.4745C457.534 24.5455 463.995 36.3436 463.995 36.3436C463.995 36.3436 469.519 25.95 476.635 25.2946C483.752 24.6391 490.119 27.5418 494.239 31.0064C498.359 34.4709 499.764 41.0254 494.988 46.2691L494.894 46.9245C494.894 46.9245 502.011 51.2317 501.074 59.5653C499.857 69.7716 489.838 74.547 489.838 74.547L441.522 96.2706Z" fill="black"/>
<path d="M442.833 90.2779L438.245 125.86L465.68 151.797L472.047 126.234L472.796 113.312C472.796 113.312 480.849 113.968 484.407 107.132C487.965 100.297 490.306 64.1535 490.306 64.1535C490.306 64.1535 472.609 66.1199 464.744 53.5727H463.995C463.995 53.5727 460.249 69.2099 449.575 73.8917L448.17 73.5171C448.17 73.5171 445.736 70.1462 440.773 70.1462C435.81 70.1462 430.192 73.4235 430.192 80.4462C430.098 87.4689 436.84 92.3379 442.833 90.2779Z" fill="white"/>
<path d="M653.045 110.129C653.045 110.129 654.169 101.233 660.817 93.5552C667.465 85.8771 676.829 75.3898 679.544 69.4908C682.353 63.6853 684.226 60.5953 679.544 57.8799C674.769 55.1645 673.833 57.0372 673.833 57.0372C673.833 57.0372 677.11 52.0745 671.679 49.4527C666.248 46.8309 664.843 49.8272 664.843 49.8272C664.843 49.8272 665.124 44.1154 661.285 42.8045C657.446 41.4936 654.637 42.43 652.952 44.3027C651.173 46.1754 634.786 69.2099 634.786 69.2099C634.786 69.2099 633.382 66.7753 633.101 64.809C632.82 62.8426 633.195 49.1718 624.674 49.8272C616.153 50.4827 616.34 57.9735 619.149 68.648C621.958 79.3225 622.333 90.7461 621.49 95.6151C620.647 100.484 619.711 103.668 619.711 103.668C619.711 103.668 622.988 107.413 634.037 109.099C644.993 110.784 653.045 110.129 653.045 110.129Z" fill="white"/>
<path d="M438.9 235.975C438.9 235.975 462.496 234.852 471.298 236.163C480.1 237.474 485.812 236.444 494.426 247.586C503.041 258.729 506.505 263.504 505.944 265.471C505.382 267.437 502.385 270.246 500.419 269.591C498.453 268.935 495.55 265.19 495.55 265.19C495.55 265.19 502.479 274.928 494.801 276.332C487.31 277.737 484.501 272.962 483.377 271.463C482.16 269.965 478.976 264.628 478.976 264.628L483.284 272.4C483.284 272.4 484.126 278.767 479.07 279.516C474.014 280.265 471.766 278.486 470.175 275.115C468.583 271.744 460.062 261.725 460.062 261.725C460.062 261.725 452.197 269.497 439.743 265.658C439.743 265.658 435.997 260.04 436.372 252.455C436.559 244.871 438.9 235.975 438.9 235.975Z" fill="white"/>
<path d="M615.685 297.869C615.685 297.869 612.033 312.289 611.939 314.349C611.939 314.349 602.107 319.124 602.107 322.495C602.107 325.866 606.695 331.952 606.695 331.952C606.695 331.952 609.598 332.608 611.845 331.765C614.093 330.922 619.056 332.608 621.303 333.263C623.55 333.918 627.764 335.229 629.075 332.795C630.479 330.454 634.599 320.248 635.535 313.225C636.472 306.202 637.689 302.55 637.689 302.55C637.689 302.55 621.677 295.06 615.685 297.869Z" fill="white"/>
<path d="M645.742 336.072C645.742 336.072 654.637 337.477 657.353 330.36C660.068 323.244 656.791 317.158 652.109 316.315C647.427 315.472 641.715 315.847 639.749 319.779L634.88 351.522C634.88 351.522 634.412 357.234 621.49 357.327V364.257L656.322 360.792L654.918 347.215C654.918 347.215 648.457 351.054 646.116 350.024C643.775 348.9 645.742 336.072 645.742 336.072Z" fill="white"/>
<path d="M524.296 376.148C524.296 376.148 522.985 366.223 523.079 363.32C523.173 360.417 522.611 347.964 522.891 343.469C523.172 338.881 524.109 334.293 525.045 332.139C525.982 329.986 528.884 325.679 525.232 324.555C521.581 323.431 518.584 322.401 515.026 325.866C511.562 329.33 509.408 335.323 508.94 337.289C508.378 339.256 508.191 347.683 502.947 346.934C497.704 346.185 496.58 343.75 495.831 341.128C495.175 338.507 489.932 327.177 485.063 323.15C480.194 319.03 476.448 317.72 473.92 318.656C471.392 319.592 468.396 322.401 468.77 323.431C468.77 323.431 461.373 323.712 461.747 330.173C461.747 330.173 464.463 334.948 466.148 337.289C467.834 339.537 471.486 344.031 474.295 351.147C477.104 358.264 480.943 365.193 485.437 368.283C489.932 371.373 493.209 373.807 494.052 380.268C494.052 380.268 497.329 381.673 508.94 380.175C520.551 378.583 524.296 376.148 524.296 376.148Z" fill="white"/>
<path d="M267.359 386.635C267.359 386.635 272.603 380.924 274.008 375.212C274.008 375.212 281.592 374.837 282.997 372.59C284.401 370.343 285.15 369.406 285.15 366.785C285.15 364.069 284.682 361.635 284.682 361.635C284.682 361.635 286.18 360.324 285.993 357.14C285.712 354.05 285.244 351.99 285.244 351.99C285.244 351.99 286.742 347.496 285.337 344.312C283.933 341.128 284.214 339.256 281.03 338.788C277.847 338.319 269.7 338.038 263.614 339.724C263.614 339.724 254.531 338.413 247.79 340.473C241.141 342.533 238.707 342.533 237.77 346.747C236.928 350.96 236.179 353.769 235.898 360.043C235.523 366.316 234.025 378.302 234.025 378.302C234.025 378.302 237.864 382.422 249.381 384.95C260.899 387.572 267.359 386.635 267.359 386.635Z" fill="white"/>
<path d="M124.658 362.571C124.658 362.571 143.104 377.834 150.97 378.302C158.835 378.77 155.933 370.156 155.933 370.156L152.655 357.702L152.749 343.376C152.749 343.376 159.397 344.406 162.487 338.788C165.577 333.169 165.764 321.839 165.764 321.839C165.764 321.839 169.978 320.06 170.633 312.57C171.289 305.079 168.199 298.524 165.015 296.839C161.925 295.06 160.146 295.247 160.146 295.247C160.146 295.247 145.633 293.842 140.764 293.374C135.988 292.812 129.621 292.906 129.621 292.906C129.621 292.906 131.4 305.921 128.684 309.76L126.999 310.041C126.999 310.041 116.886 309.105 116.137 316.128C115.388 323.15 119.602 328.394 126.624 327.458L123.909 335.136L124.658 362.571Z" fill="white"/>
<path d="M256.872 330.079C275.644 330.079 290.862 314.862 290.862 296.089C290.862 277.317 275.644 262.1 256.872 262.1C238.1 262.1 222.882 277.317 222.882 296.089C222.882 314.862 238.1 330.079 256.872 330.079Z" fill="#FD4040"/>
<path d="M163.423 295.247V290.94C163.423 290.94 139.64 294.498 125.407 288.786C125.407 288.786 130.464 301.24 125.22 308.262L123.441 309.948C123.441 309.948 118.478 310.51 117.074 315.191C115.669 319.779 117.167 326.989 125.501 327.364C125.501 327.364 127.093 334.761 124.19 335.042C121.287 335.229 117.074 334.106 110.987 328.207C104.901 322.308 98.1592 310.229 98.8146 303.3C99.4701 296.371 99.8447 293.749 99.8447 293.749C99.8447 293.749 89.8255 294.966 82.8028 287.475C75.6865 279.984 76.1547 271.463 82.8028 263.036C89.451 254.609 100.406 255.545 104.901 256.669C109.395 257.793 115.201 261.913 116.137 267.25C117.074 272.587 116.605 276.145 116.605 276.145C116.605 276.145 125.22 270.527 133.647 270.34C142.074 270.152 151.812 270.714 159.584 277.269C167.356 283.823 166.888 296.839 166.888 296.839L163.423 295.247Z" fill="black"/>
<path d="M482.16 377.365C482.16 377.365 487.684 384.201 510.251 379.613C532.817 375.025 533.94 370.156 533.94 370.156C533.94 370.156 548.454 416.037 549.671 419.595C550.889 423.153 553.791 432.892 555.851 434.858C557.911 436.824 562.5 440.382 566.62 438.791C570.833 437.199 574.578 434.952 576.732 430.738C578.886 426.524 588.53 402.834 590.777 398.621C593.025 394.407 602.201 378.957 610.909 376.148C619.617 373.245 626.64 371.373 639.843 372.496C653.045 373.526 664.094 373.058 671.492 375.212C678.889 377.459 686.473 385.793 693.964 397.497C701.455 409.202 710.725 424.839 715.313 435.326C719.901 445.813 727.018 461.17 728.797 473.155C730.576 485.234 733.385 499.841 724.302 506.021C715.22 512.201 706.324 510.422 703.702 509.298C701.081 508.175 698.271 506.489 698.271 506.489C698.271 506.489 699.301 560.143 700.893 568.476L700.519 569.413L582.163 569.225L584.691 493.942C584.691 493.942 560.533 502.65 538.809 494.879C517.086 487.107 504.913 463.51 503.322 459.952C501.73 456.394 492.272 432.143 488.714 413.322C485.25 394.501 482.16 377.365 482.16 377.365Z" fill="white"/>
<path d="M281.498 383.545C281.498 383.545 276.536 419.97 274.008 433.828C271.479 447.686 266.985 479.616 258.838 488.511C250.786 497.407 244.98 507.894 226.066 504.617C207.151 501.433 202.095 480.833 202.095 480.833L200.222 472.031L199.38 475.496C199.38 475.496 200.316 501.808 203.032 519.224C205.747 536.64 212.02 568.757 212.02 568.757L75.9677 569.225L86.3611 528.681C86.3611 528.681 94.6011 494.972 95.0693 478.118C95.5375 461.357 93.6647 450.589 92.6347 444.69C91.6047 438.791 88.8892 426.524 88.8892 426.524C88.8892 426.524 70.5368 447.499 66.6041 453.398C62.6714 459.297 56.1167 470.908 55.1803 474.56C54.244 478.305 54.8059 494.879 68.3831 499.467C68.3831 499.467 62.765 501.058 60.0496 508.362C57.3341 515.666 54.7123 521.097 53.9632 530.273C53.2142 539.449 51.8094 548.064 55.1803 550.592L56.6786 552.184C56.6786 552.184 36.0787 547.97 25.966 540.666C15.9469 533.363 5.92791 525.966 3.02519 513.606C0.122482 501.246 -0.252016 490.665 4.24251 471.563C8.73703 452.461 17.2579 436.543 23.906 425.682C30.6478 414.82 50.3113 392.347 58.9258 385.044C67.4466 377.74 87.1103 367.815 99.0957 365.193C110.987 362.571 124.471 361.166 124.471 361.166C124.471 361.166 132.149 369.5 141.045 374.369C150.034 379.238 154.528 380.549 156.214 376.242C157.899 371.935 153.498 360.698 153.498 360.698C153.498 360.698 165.764 360.23 176.439 363.133C187.113 366.036 201.814 373.339 212.395 385.793L220.354 397.872L228.594 372.871C228.594 372.871 230.467 382.047 253.595 385.325C276.723 388.695 281.686 383.358 281.686 383.358L281.498 383.545Z" fill="black"/>
<path d="M62.6712 504.523C62.6712 504.523 72.6902 496.002 84.9565 493.755C97.2228 491.508 104.714 493.568 108.272 496.47C111.83 499.373 109.115 503.961 109.115 503.961C109.115 503.961 114.077 505.928 113.984 509.767C113.89 513.606 112.673 514.823 112.673 514.823C112.673 514.823 115.856 515.572 115.482 520.067C115.107 524.467 110.707 526.434 102.841 526.902C94.9757 527.464 91.2301 527.089 88.8892 527.557C86.5483 527.932 83.9267 528.962 83.9267 528.962C83.9267 528.962 81.1175 541.135 69.5066 542.82C57.8958 544.505 53.4013 541.696 53.4013 541.696C53.4013 541.696 52.7459 532.707 55.555 521.658C58.5513 510.609 62.6712 504.523 62.6712 504.523Z" fill="white"/>
<path d="M438.245 125.86L424.48 139.624L459.032 178.857L465.68 151.797L481.598 174.55L484.033 141.122L472.047 126.234L438.245 125.86Z" fill="white"/>
<path d="M645.742 336.072C645.742 336.072 642.465 349.556 646.21 349.93C649.956 350.305 657.634 345.623 662.128 341.316C666.623 336.915 673.364 330.173 675.331 317.719C677.391 305.266 677.578 296.839 667.091 295.06C667.091 295.06 660.255 287.007 650.517 282.325C640.873 277.643 623.925 274.647 616.434 280.546C608.943 286.445 609.037 294.966 609.786 297.12C610.535 299.367 613.438 304.423 613.438 304.423L616.527 297.12C616.527 297.12 631.416 297.4 637.689 302.55C637.689 302.55 634.318 319.592 632.539 325.304C630.76 331.016 629.168 334.574 625.516 334.106C621.865 333.638 616.902 331.765 615.497 331.484C614.093 331.203 611.284 331.858 611.284 331.858C611.284 331.858 609.505 332.046 608.381 331.858C607.351 331.671 606.696 331.858 606.696 331.858C606.696 331.858 603.044 346.466 602.669 348.338C602.389 350.211 603.325 353.582 609.505 355.361C615.685 357.14 621.865 357.889 627.108 356.766C632.352 355.642 634.225 355.08 635.535 348.713C636.846 342.346 639.562 319.592 639.562 319.592C639.562 319.592 642.746 314.91 648.738 315.566C654.731 316.221 659.787 321.184 658.008 328.113C656.135 335.136 648.364 336.634 645.742 336.072Z" fill="black"/>
<path d="M621.584 94.5852C621.584 94.5852 621.49 101.982 619.336 103.481C617.183 104.979 611.658 98.6115 612.595 97.5815C613.625 96.6452 617.464 94.3979 621.584 94.5852Z" fill="black"/>
<path d="M656.416 100.11C656.416 100.11 653.701 104.417 653.701 109.192C653.607 113.968 664.375 109.286 664.937 107.975C665.499 106.571 662.596 102.17 656.416 100.11Z" fill="black"/>
<path d="M489.651 371.466C489.651 371.466 482.254 374.182 482.534 377.272C482.815 380.268 493.583 381.392 494.145 381.017C494.52 380.643 494.052 373.246 489.651 371.466Z" fill="black"/>
<path d="M523.172 366.223C523.172 366.223 524.202 375.493 524.671 376.242C525.139 377.085 534.409 371.935 533.66 369.687C532.817 367.44 523.172 366.223 523.172 366.223Z" fill="black"/>
<path d="M235.055 369.313C235.055 369.313 229.062 370.717 228.969 372.871C228.781 375.118 234.025 378.208 234.025 378.208L235.055 369.313Z" fill="black"/>
<path d="M274.007 375.212C274.007 375.212 270.543 385.044 267.359 386.635C267.359 386.635 282.528 386.823 281.967 381.579C281.498 377.272 274.007 375.212 274.007 375.212Z" fill="black"/>
<path d="M66.0421 543.288C66.0421 543.288 54.7121 543.195 53.5885 541.603C53.5885 541.603 53.9632 552.745 58.1768 552.184C62.484 551.622 66.0421 543.288 66.0421 543.288Z" fill="black"/>
<path d="M69.0384 500.122L66.9785 499.186L64.0757 502.931L69.0384 500.122Z" fill="#3A3A3A"/>
<path d="M324.945 410.232C318.204 410.232 312.585 404.707 312.585 397.872C312.585 391.13 318.11 385.512 324.945 385.512C331.781 385.512 337.305 391.036 337.305 397.872C337.305 404.707 331.781 410.232 324.945 410.232Z" fill="black"/>
<path d="M700.996 569.447C700.996 569.447 634.187 569.447 582.341 569.447L582.809 554.934C641.715 554.934 647.125 564.285 700.996 569.447Z" fill="black"/>
<path d="M252.471 332.608V339.256H263.427L273.258 338.413V332.046C273.258 332.046 260.805 335.323 252.471 332.608Z" fill="black"/>
<path d="M423.544 471.189H403.412V497.5H423.544V471.189Z" fill="#FD4040"/>
<path d="M389.929 458.642H369.61V497.126H389.929V458.642Z" fill="black"/>
<path d="M163.423 290.94V295.247L166.701 296.839C166.701 296.839 167.075 283.73 159.397 277.269C153.685 272.493 146.85 270.902 140.295 270.433C142.636 271.744 144.883 273.523 146.756 275.677C153.966 283.73 134.49 290.378 127.561 289.535C127.374 289.535 127.186 289.535 127.093 289.535C141.419 294.217 163.423 290.94 163.423 290.94Z" fill="white"/>
<path d="M116.512 276.051C116.512 276.051 116.98 272.493 116.044 267.156C115.107 261.819 109.302 257.699 104.807 256.575C100.968 255.639 92.6346 254.796 86.0801 259.665C86.6419 259.572 108.647 254.89 111.081 281.295L116.512 276.051Z" fill="white"/>
<path d="M616.527 280.452C609.036 286.351 609.13 294.872 609.879 297.026C610.628 299.273 613.531 304.33 613.531 304.33L615.029 300.678L615.778 297.775L616.246 297.681L616.527 296.932C616.527 296.932 617.932 296.932 620.085 297.12L620.438 296.689C620.438 296.689 610.564 294.461 618.166 283.757C623.222 278.419 635.816 277.269 644.993 279.703C635.255 276.707 622.707 275.583 616.527 280.452Z" fill="white"/>
<path d="M494.988 46.8309L495.082 46.1754C499.857 40.9318 498.452 34.3773 494.332 30.9128C491.711 28.6655 488.059 26.6992 483.939 25.7628C487.123 27.7292 495.737 34.5646 489.37 47.7672C489.37 47.7672 486.842 63.1235 464.463 52.7299C464.463 52.7299 469.051 67.1498 469.613 67.7117C469.894 68.0862 477.759 73.1426 484.033 77.1689L489.932 74.5471C489.932 74.5471 499.951 69.7716 501.168 59.5653C502.104 51.1381 494.988 46.8309 494.988 46.8309Z" fill="white"/>
<path d="M463.807 52.2617C463.807 52.2617 455.38 71.738 442.833 70.0525L448.919 74.6407C448.919 74.6407 460.998 70.0525 463.807 52.2617Z" fill="white"/>
<path d="M356.126 498.343H335.994C335.526 498.343 335.151 497.969 335.151 497.5V434.858C335.151 434.39 335.526 434.015 335.994 434.015H356.126C356.594 434.015 356.969 434.39 356.969 434.858V454.99C356.969 455.458 356.594 455.832 356.126 455.832C355.658 455.832 355.283 455.458 355.283 454.99V435.701H336.837V496.658H355.283V478.211C355.283 477.743 355.658 477.369 356.126 477.369C356.594 477.369 356.969 477.743 356.969 478.211V497.5C356.969 497.969 356.594 498.343 356.126 498.343Z" fill="black"/>
<path d="M389.835 498.343H369.703C369.235 498.343 368.86 497.969 368.86 497.5V458.548C368.86 458.08 369.235 457.705 369.703 457.705H389.835C390.303 457.705 390.678 458.08 390.678 458.548V497.5C390.678 497.969 390.303 498.343 389.835 498.343ZM370.546 496.658H388.992V459.39H370.546V496.658Z" fill="black"/>
<path d="M447.14 344.031H343.485C343.017 344.031 342.642 343.657 342.642 343.188C342.642 342.72 343.017 342.346 343.485 342.346H447.14C447.608 342.346 447.983 342.72 447.983 343.188C447.983 343.657 447.608 344.031 447.14 344.031Z" fill="black"/>
<path d="M447.14 359.481H343.485C343.017 359.481 342.642 359.107 342.642 358.638C342.642 358.17 343.017 357.796 343.485 357.796H447.14C447.608 357.796 447.983 358.17 447.983 358.638C447.983 359.107 447.608 359.481 447.14 359.481Z" fill="black"/>
<path d="M447.14 384.763H343.485C343.017 384.763 342.642 384.388 342.642 383.92C342.642 383.452 343.017 383.077 343.485 383.077H447.14C447.608 383.077 447.983 383.452 447.983 383.92C447.983 384.388 447.608 384.763 447.14 384.763Z" fill="black"/>
<path d="M447.14 400.213H343.485C343.017 400.213 342.642 399.838 342.642 399.37C342.642 398.902 343.017 398.527 343.485 398.527H447.14C447.608 398.527 447.983 398.902 447.983 399.37C447.983 399.838 447.608 400.213 447.14 400.213Z" fill="black"/>
<path d="M321.668 363.414C314.364 363.414 308.465 357.515 308.465 350.211C308.465 342.908 314.364 337.009 321.668 337.009C328.972 337.009 334.871 342.908 334.871 350.211C334.871 357.515 328.972 363.414 321.668 363.414ZM321.668 338.788C315.301 338.788 310.151 343.938 310.151 350.305C310.151 356.672 315.301 361.822 321.668 361.822C328.035 361.822 333.185 356.672 333.185 350.305C333.185 343.938 328.035 338.788 321.668 338.788Z" fill="black"/>
<path d="M321.668 404.145C314.364 404.145 308.465 398.246 308.465 390.943C308.465 383.639 314.364 377.74 321.668 377.74C328.972 377.74 334.871 383.639 334.871 390.943C334.871 398.246 328.972 404.145 321.668 404.145ZM321.668 379.425C315.301 379.425 310.151 384.576 310.151 390.943C310.151 397.31 315.301 402.46 321.668 402.46C328.035 402.46 333.185 397.31 333.185 390.943C333.185 384.669 328.035 379.425 321.668 379.425Z" fill="black"/>
<path d="M477.197 281.014C475.137 281.014 473.171 280.171 471.579 278.673C470.362 277.456 469.425 276.145 468.583 274.741C468.302 274.366 468.115 273.992 467.834 273.617C466.71 272.025 465.68 270.34 464.65 268.654L464.088 267.718C462.871 265.752 460.811 263.692 458.751 261.725C457.721 260.695 456.785 259.759 455.848 258.823C455.567 258.448 455.567 257.98 455.942 257.605C456.316 257.324 456.785 257.324 457.159 257.699C458.002 258.635 458.938 259.572 459.968 260.508C462.028 262.568 464.182 264.628 465.493 266.782L466.055 267.718C467.085 269.403 468.115 270.995 469.238 272.587C469.519 272.962 469.706 273.336 469.987 273.711C470.83 274.928 471.673 276.239 472.796 277.269C474.763 279.141 477.291 279.703 479.632 278.673C480.755 278.205 481.598 277.55 482.16 276.894C482.815 275.958 482.909 274.928 482.815 274.272C482.722 272.962 482.16 271.744 481.598 270.433C480.943 268.935 480.1 267.437 479.07 265.564C476.823 261.444 474.107 257.231 471.111 253.017C470.83 252.643 470.924 252.081 471.298 251.8C471.673 251.519 472.235 251.613 472.516 251.987C475.512 256.294 478.227 260.602 480.568 264.722C481.598 266.594 482.441 268.186 483.096 269.684C483.752 271.089 484.313 272.493 484.501 274.085C484.594 275.49 484.22 276.801 483.471 277.831C482.722 278.767 481.692 279.61 480.194 280.172C479.257 280.733 478.227 281.014 477.197 281.014Z" fill="black"/>
<path d="M492.273 277.924C489.651 277.924 487.029 276.894 485.156 275.209C484.033 274.179 483.284 272.962 482.534 271.744C482.16 271.089 481.785 270.527 481.317 269.965C481.036 269.591 481.13 269.029 481.504 268.748C481.879 268.467 482.441 268.561 482.722 268.935C483.19 269.497 483.564 270.152 483.939 270.808C484.688 272.025 485.344 273.055 486.28 273.992C488.059 275.677 490.587 276.52 493.115 276.239C494.894 276.052 496.58 275.209 497.329 274.179C497.797 273.523 497.984 272.681 497.703 271.838C497.142 269.216 495.456 266.594 493.864 264.253C492.272 261.913 490.494 259.665 488.434 257.231C486.28 254.609 484.22 252.362 482.254 250.302C481.973 249.927 481.973 249.459 482.254 249.084C482.628 248.803 483.096 248.803 483.471 249.084C485.437 251.144 487.497 253.392 489.744 256.107C491.804 258.542 493.583 260.789 495.269 263.223C496.861 265.658 498.64 268.467 499.389 271.37C499.67 272.774 499.483 273.992 498.734 275.115C497.704 276.613 495.643 277.643 493.303 277.831C492.928 277.924 492.647 277.924 492.273 277.924Z" fill="black"/>
<path d="M500.513 270.527C500.138 270.527 499.763 270.527 499.483 270.433C497.423 269.965 496.58 268.373 496.486 268.373C496.299 267.999 496.393 267.437 496.861 267.25C497.235 267.062 497.797 267.156 497.985 267.624C497.985 267.624 498.546 268.654 499.857 268.841C501.168 269.122 502.76 268.561 504.539 267.25C505.382 266.594 505.85 265.751 505.944 264.721C506.318 260.321 500.325 253.766 500.232 253.672C494.801 245.901 486.654 240.002 482.16 238.784C465.493 234.571 439.837 237.473 439.556 237.473C438.994 237.567 438.713 237.193 438.619 236.724C438.526 236.256 438.9 235.882 439.368 235.788C439.649 235.788 465.587 232.792 482.535 237.099C487.404 238.316 495.925 244.496 501.543 252.549C501.73 252.736 508.097 259.571 507.629 264.815C507.442 266.407 506.786 267.624 505.475 268.561C503.696 269.871 502.011 270.527 500.513 270.527Z" fill="black"/>
<path d="M444.425 267.437C443.02 267.437 441.615 267.343 440.117 267.156C439.649 267.062 439.368 266.688 439.368 266.22C439.462 265.752 439.836 265.377 440.305 265.471C449.668 266.782 456.41 263.317 459.5 261.163C459.874 260.883 460.436 260.976 460.717 261.351C460.998 261.725 460.905 262.287 460.53 262.568C457.627 264.441 452.103 267.437 444.425 267.437Z" fill="black"/>
<path d="M363.43 236.912C363.055 236.912 362.681 236.631 362.587 236.163C362.493 235.694 362.868 235.226 363.336 235.226C403.131 228.859 452.758 222.304 453.32 222.211C453.788 222.117 454.257 222.492 454.257 222.96C454.35 223.428 453.976 223.896 453.507 223.896C453.039 223.99 403.319 230.544 363.617 236.912C363.523 236.818 363.523 236.912 363.43 236.912Z" fill="black"/>
<path d="M381.501 292.625C374.104 292.625 366.988 292.157 360.152 291.127C343.673 288.599 333.092 282.606 327.567 272.681C321.106 260.976 324.664 245.901 330.189 235.694C332.811 230.732 335.245 226.05 337.586 221.555C342.549 212.005 347.137 203.016 352.474 194.682C364.272 176.423 377.662 158.07 395.921 147.396C405.098 142.059 414.742 140.467 424.855 138.781C425.323 138.688 425.791 139.062 425.791 139.53C425.885 139.999 425.51 140.467 425.042 140.467C415.023 142.059 405.659 143.65 396.67 148.8C378.692 159.288 365.396 177.453 353.785 195.618C348.448 203.858 343.86 212.847 338.991 222.398C336.65 226.893 334.215 231.668 331.593 236.631C326.35 246.463 322.885 260.976 328.972 272.025C334.215 281.482 344.515 287.288 360.34 289.629C383.842 293.187 411.277 290.471 441.896 281.67C446.953 280.171 451.822 278.673 456.316 277.081C456.785 276.894 457.253 277.175 457.44 277.643C457.627 278.111 457.346 278.58 456.878 278.767C452.29 280.359 447.421 281.951 442.365 283.355C420.454 289.441 400.041 292.625 381.501 292.625Z" fill="black"/>
<path d="M393.299 232.324C393.112 232.324 392.831 232.23 392.644 232.043C392.363 231.668 392.363 231.2 392.738 230.825C413.244 212.66 424.012 186.442 424.106 186.161C424.293 185.693 424.761 185.506 425.229 185.693C425.698 185.88 425.885 186.348 425.698 186.816C425.604 187.097 414.742 213.69 393.861 232.136C393.674 232.23 393.487 232.324 393.299 232.324Z" fill="black"/>
<path d="M472.328 114.155C469.145 114.155 465.399 113.687 460.905 112.657C457.815 112.001 455.193 111.065 452.946 109.941C452.571 109.754 452.384 109.192 452.571 108.818C452.758 108.443 453.32 108.256 453.695 108.443C455.942 109.567 458.377 110.316 461.279 110.971C470.643 113.031 476.729 112.844 480.475 110.503C482.722 109.099 484.126 106.758 484.876 103.387C485.344 101.327 486.186 96.0833 486.842 91.4015C487.404 87.8433 489.464 64.2471 489.557 64.0598C489.557 63.5917 490.026 63.2171 490.494 63.3107C490.962 63.3107 491.336 63.7789 491.243 64.2471C491.149 65.1834 489.089 88.2179 488.527 91.6824C487.965 95.7088 487.029 101.327 486.467 103.761C485.625 107.6 483.939 110.316 481.411 112.001C479.07 113.5 476.167 114.155 472.328 114.155Z" fill="black"/>
<path d="M438.245 126.702C437.683 126.609 437.308 126.234 437.402 125.766L441.99 90.1843C442.084 89.7161 442.458 89.4352 442.926 89.4352C443.395 89.5288 443.676 89.9034 443.676 90.3716L439.087 125.953C438.994 126.421 438.619 126.702 438.245 126.702Z" fill="black"/>
<path d="M440.398 91.4015C437.496 91.4015 434.593 90.2779 432.439 88.0307C428.132 83.6298 428.319 76.6071 432.72 72.2999C437.121 67.9926 444.144 68.1799 448.451 72.5808C449.762 73.9853 450.792 75.6707 451.26 77.5434C451.354 78.0116 451.073 78.4798 450.604 78.5735C450.136 78.6671 449.668 78.3862 449.575 77.918C449.2 76.3262 448.357 74.828 447.234 73.7044C443.582 69.959 437.683 69.8653 433.937 73.5171C432.158 75.2962 431.128 77.6371 431.035 80.1652C431.035 82.6934 431.971 85.0343 433.657 86.907C436.746 90.0907 441.522 90.7461 445.267 88.4052C445.642 88.1243 446.204 88.3116 446.391 88.6861C446.672 89.0607 446.484 89.6225 446.11 89.8098C444.331 90.9334 442.365 91.4015 440.398 91.4015Z" fill="black"/>
<path d="M466.242 74.6407C466.897 74.6407 467.366 75.0153 467.178 77.4498C466.991 80.1652 466.242 80.5398 465.586 80.4462C465.025 80.3525 464.463 79.4161 464.837 77.4498C465.118 75.4834 465.306 74.6407 466.242 74.6407Z" fill="black"/>
<path d="M485.531 76.5135C486.186 76.5135 486.655 76.888 486.467 79.3226C486.28 82.038 485.531 82.4126 484.876 82.3189C484.314 82.2253 483.752 81.2889 484.126 79.3226C484.407 77.4498 484.595 76.5135 485.531 76.5135Z" fill="black"/>
<path d="M489.37 72.3934C489.089 72.3934 488.902 72.2998 488.714 72.0189C487.965 70.9889 486.467 70.0526 483.658 70.8953C483.19 71.0826 482.722 70.8016 482.628 70.3334C482.535 69.8653 482.722 69.3971 483.19 69.3035C487.123 68.0862 489.183 69.8653 490.026 70.9889C490.306 71.3635 490.213 71.9253 489.838 72.2062C489.745 72.2998 489.557 72.3934 489.37 72.3934Z" fill="black"/>
<path d="M461.373 70.9889C461.185 70.9889 460.904 70.8952 460.717 70.708C460.436 70.3334 460.436 69.8653 460.811 69.4907C466.804 64.2471 471.485 68.4607 471.485 68.4607C471.86 68.7416 471.86 69.3035 471.485 69.678C471.111 70.0525 470.643 70.0525 470.268 69.678C470.081 69.5844 466.71 66.4944 461.841 70.708C461.747 70.8952 461.56 70.9889 461.373 70.9889Z" fill="black"/>
<path d="M472.047 127.077C471.486 127.077 471.204 126.609 471.204 126.14L471.954 113.219C471.954 112.751 472.328 112.376 472.89 112.376C473.358 112.376 473.733 112.844 473.733 113.312L472.984 126.234C472.89 126.702 472.516 127.077 472.047 127.077Z" fill="black"/>
<path d="M448.732 75.2026C448.451 75.2026 448.17 75.0153 447.983 74.7344C447.795 74.3599 447.889 73.798 448.357 73.6108C460.998 67.0562 463.245 52.8236 463.245 52.6364C463.339 52.2618 463.62 51.9809 463.901 51.8873C464.275 51.7936 464.65 51.9809 464.837 52.2618C465.118 52.8236 472.515 65.3708 490.213 63.3108C490.774 63.2172 491.055 63.5918 491.149 64.0599C491.243 64.5281 490.868 64.9027 490.4 64.9963C475.605 66.6817 467.366 58.4418 464.556 54.79C463.433 59.0972 459.781 69.4908 449.107 75.0153C449.013 75.1089 448.919 75.2026 448.732 75.2026Z" fill="black"/>
<path d="M436.559 86.0643C436.185 86.0643 435.904 85.877 435.717 85.5024C435.529 85.0343 435.81 84.5661 436.185 84.3788L443.488 81.757L437.87 74.4534C437.589 74.0789 437.683 73.5171 438.057 73.2362C438.432 72.9553 438.994 73.0489 439.275 73.4235L445.642 81.6634C445.829 81.8507 445.829 82.1316 445.829 82.4125C445.736 82.6934 445.548 82.8806 445.267 82.9743L436.934 85.9706C436.747 86.0643 436.653 86.0643 436.559 86.0643Z" fill="black"/>
<path d="M465.68 152.639C465.493 152.639 465.212 152.546 465.118 152.452L437.683 126.515C437.308 126.234 437.308 125.672 437.683 125.298C437.964 124.923 438.526 124.923 438.9 125.298L465.305 150.299L471.298 125.766C471.392 125.298 471.86 125.017 472.328 125.111C472.796 125.204 473.077 125.672 472.984 126.141L466.616 152.078C466.523 152.359 466.335 152.639 466.054 152.733C465.867 152.639 465.774 152.639 465.68 152.639Z" fill="black"/>
<path d="M459.219 179.887C458.938 179.887 458.751 179.794 458.563 179.607L424.386 139.999C424.105 139.624 424.105 139.156 424.386 138.875L437.589 125.204C437.964 124.83 438.432 124.83 438.806 125.204C439.181 125.485 439.181 126.047 438.806 126.421L426.166 139.53L458.751 177.266L464.837 151.609C464.931 151.141 465.399 150.86 465.867 150.954C466.335 151.048 466.616 151.516 466.523 151.984L460.062 179.232C459.968 179.513 459.781 179.794 459.406 179.887C459.313 179.887 459.219 179.887 459.219 179.887Z" fill="black"/>
<path d="M481.785 175.767C481.504 175.767 481.223 175.674 481.13 175.393L465.024 152.265C464.744 151.89 464.837 151.328 465.212 151.048C465.586 150.767 466.148 150.86 466.429 151.235L481.036 172.303L482.628 140.56L471.391 126.234C471.111 125.86 471.204 125.298 471.579 125.017C471.953 124.736 472.515 124.83 472.796 125.204L484.22 139.811C484.313 139.999 484.407 140.186 484.407 140.373L482.722 174.925C482.722 175.299 482.441 175.58 482.066 175.674C481.879 175.767 481.879 175.767 481.785 175.767Z" fill="black"/>
<path d="M441.99 97.6751C441.803 97.6751 441.522 97.5815 441.428 97.3942C438.806 94.7724 437.027 90.8397 436.934 90.6524C436.747 90.1843 436.934 89.7161 437.402 89.5288C437.87 89.3415 438.338 89.5288 438.526 89.997C438.526 89.997 440.305 93.8361 442.645 96.2706C443.02 96.5515 442.926 97.1133 442.645 97.4878C442.365 97.5815 442.177 97.6751 441.99 97.6751Z" fill="black"/>
<path d="M479.07 95.0533C478.695 95.0533 478.321 94.7724 478.227 94.3979C478.134 93.9297 478.414 93.4615 478.883 93.3679C479.163 93.2743 479.538 93.1806 479.819 93.1806C480.474 92.9933 481.13 92.8997 481.692 92.7124C482.534 92.3379 483.19 91.7761 483.377 91.2143C483.564 90.7461 483.471 90.0906 483.284 89.6225C482.722 88.4052 479.164 76.2325 478.789 74.828C478.695 74.3598 478.883 73.8916 479.351 73.798C479.819 73.7043 480.287 73.8916 480.381 74.3598C481.879 79.5098 484.407 88.1243 484.782 88.8734C485.25 89.8097 485.343 90.9334 484.969 91.7761C484.594 92.8997 483.658 93.7424 482.254 94.3043C481.504 94.5852 480.755 94.7724 480.1 94.866C479.819 94.9597 479.444 94.9597 479.164 95.0533C479.257 95.0533 479.164 95.0533 479.07 95.0533Z" fill="black"/>
<path d="M556.507 157.508C545.177 157.508 533.941 154.512 522.892 151.703C518.397 150.486 513.715 149.268 509.221 148.332L505.85 147.583C497.704 145.804 492.273 144.68 483.377 142.995C482.909 142.901 482.628 142.433 482.722 141.965C482.816 141.497 483.284 141.216 483.752 141.309C492.647 142.995 498.078 144.118 506.318 145.898L509.689 146.647C514.277 147.583 518.959 148.8 523.454 150.018C537.499 153.669 552.013 157.508 566.339 154.98C591.714 150.486 608.756 129.23 611.939 98.1433C611.939 97.6751 612.408 97.3006 612.876 97.3942C613.344 97.3942 613.719 97.8624 613.625 98.3306C610.348 130.167 592.838 151.984 566.62 156.666C563.155 157.321 559.878 157.508 556.507 157.508Z" fill="black"/>
<path d="M529.914 222.211C523.547 222.211 516.899 221.93 512.123 221.274C511.655 221.181 511.374 220.806 511.374 220.338C511.468 219.87 511.843 219.589 512.311 219.589C520.832 220.713 536 220.713 544.053 219.964C591.433 215.375 631.603 189.532 648.832 152.546C655.012 139.249 659.225 124.83 663.158 110.971L664.282 107.226C664.375 106.758 664.937 106.571 665.312 106.664C665.78 106.758 666.061 107.226 665.873 107.694L664.75 111.44C660.723 125.391 656.603 139.811 650.33 153.295C632.82 190.843 592.088 217.061 544.147 221.743C540.495 222.024 535.251 222.211 529.914 222.211Z" fill="black"/>
<path d="M652.015 111.908C647.521 111.908 642.464 111.44 637.595 110.597C630.479 109.38 624.018 107.507 619.243 105.26C614.093 102.825 611.565 100.391 611.939 98.0497C612.314 95.6152 615.123 94.2106 620.46 93.7424C621.022 93.6488 621.303 94.0234 621.396 94.4915C621.396 94.9597 621.116 95.3343 620.647 95.4279C617.651 95.7088 613.999 96.4579 613.718 98.3306C613.531 99.4542 615.123 101.421 620.085 103.668C624.767 105.821 631.134 107.694 638.063 108.818C653.794 111.533 664.001 109.567 664.469 106.945C664.75 105.166 661.847 103.012 656.51 100.859C656.042 100.671 655.854 100.203 656.042 99.7351C656.229 99.2669 656.697 99.0797 657.165 99.2669C663.72 101.795 666.622 104.417 666.154 107.226C665.405 110.597 659.506 111.908 652.015 111.908Z" fill="black"/>
<path d="M619.524 104.885C619.43 104.885 619.243 104.885 619.149 104.791C618.774 104.604 618.587 104.042 618.775 103.668C620.554 99.9224 622.988 86.0643 618.494 69.5844C615.965 60.408 615.872 54.6962 618.213 51.6063C619.524 49.8272 621.677 48.9845 624.674 48.9845C631.884 48.9845 632.726 55.539 633.475 61.2508C634.037 65.4644 634.505 69.7716 637.314 71.9253C644.712 77.637 642.277 87.0007 642.183 87.4688C642.09 87.937 641.622 88.2179 641.153 88.0306C640.685 87.937 640.404 87.4688 640.592 87.0007C640.685 86.6261 642.839 78.2925 636.284 73.2362C633.007 70.708 632.445 65.9325 631.884 61.438C631.134 55.6326 630.573 50.6699 624.861 50.6699C622.333 50.6699 620.741 51.3254 619.711 52.6363C617.745 55.1645 617.932 60.5953 620.273 69.1162C624.486 84.6597 622.895 99.3606 620.46 104.417C620.179 104.698 619.898 104.885 619.524 104.885Z" fill="black"/>
<path d="M645.742 76.9816C645.555 76.9816 645.367 76.888 645.18 76.7943C644.805 76.5134 644.805 75.9516 645.086 75.5771C651.828 67.7117 658.57 57.599 662.971 50.389C663.345 49.7335 663.72 49.0781 663.907 48.4227C664.188 47.1118 663.626 45.52 662.409 44.3963C660.723 42.8982 658.289 42.4299 656.135 43.179C654.637 43.7408 652.952 45.1454 651.172 47.7672C648.832 50.9508 646.772 53.6663 644.993 56.1008C641.434 60.7826 638.625 64.4344 635.629 69.5844C635.442 69.9589 634.88 70.1462 634.505 69.8652C634.131 69.678 633.944 69.1162 634.225 68.7417C637.221 63.4981 640.217 59.5653 643.682 55.0708C645.461 52.7299 647.614 50.0145 649.862 46.8308C651.173 45.0518 653.139 42.5236 655.667 41.6809C658.476 40.7445 661.566 41.3063 663.72 43.2727C665.405 44.7709 666.248 47.0181 665.78 48.9845C665.593 49.8272 665.124 50.5763 664.656 51.419C660.162 58.629 653.42 68.9289 646.584 76.7943C646.21 76.888 646.023 76.9816 645.742 76.9816Z" fill="black"/>
<path d="M655.761 83.4424C655.574 83.4424 655.386 83.3489 655.199 83.2552C654.824 82.9743 654.825 82.4124 655.106 82.0379C661.566 74.547 667.559 66.0262 673.177 56.569C673.739 55.6326 674.113 54.8835 674.113 54.0408C674.113 52.7299 673.083 51.3254 672.053 50.5763C671.023 49.8272 668.215 48.329 664.937 50.389C664.563 50.6699 664.001 50.4826 663.72 50.1081C663.439 49.7336 663.626 49.1718 664.001 48.8908C666.904 47.0181 670.274 47.1118 673.084 49.0781C674.488 50.1081 675.893 51.9808 675.893 53.9471C675.893 55.258 675.143 56.4753 674.675 57.3181C669.057 66.8689 662.971 75.4834 656.51 83.0679C656.229 83.3488 655.948 83.4424 655.761 83.4424Z" fill="black"/>
<path d="M653.045 111.346C652.483 111.252 652.109 110.878 652.203 110.41C653.045 103.293 656.978 96.5516 660.443 92.6189C665.967 86.3453 675.986 74.9217 680.481 66.0263C681.136 64.7154 681.885 63.1235 681.604 61.6254C681.417 60.4081 680.481 59.1908 679.076 58.5354C677.484 57.6927 676.08 57.3181 674.488 57.8799C674.02 58.0672 673.552 57.7863 673.364 57.3181C673.177 56.85 673.458 56.3818 673.926 56.1945C676.267 55.3518 678.233 56.1008 679.919 56.9436C681.792 57.8799 683.009 59.4717 683.29 61.3445C683.571 63.3108 682.822 65.1835 681.979 66.7753C677.391 75.858 667.278 87.3753 661.847 93.5552C658.476 97.3943 654.731 103.762 653.888 110.503C653.794 111.065 653.42 111.346 653.045 111.346Z" fill="black"/>
<path d="M464.088 325.866C463.901 325.866 463.62 325.772 463.526 325.585C463.526 325.585 462.777 324.836 461.56 323.618C460.717 322.776 460.53 321.933 461.092 320.809C461.654 319.779 462.122 318.656 462.684 317.532C463.246 316.409 463.807 315.285 464.369 314.068C464.65 313.506 464.65 313.131 464.275 312.476C463.714 311.259 463.152 310.041 462.59 308.824C462.215 307.888 461.747 306.951 461.373 306.015C461.185 305.64 460.811 305.172 460.53 305.079C457.815 304.049 455.005 303.112 452.945 302.457C451.822 302.082 451.354 301.427 451.354 300.21C451.447 297.12 451.447 294.591 451.354 292.25C451.354 290.752 452.196 290.191 453.039 290.003C455.848 289.067 458.189 288.318 460.53 287.381C460.811 287.288 461.185 286.82 461.373 286.445C462.496 284.291 463.526 282.044 464.463 279.797C464.556 279.516 464.65 278.954 464.463 278.767C463.433 276.332 462.215 273.991 461.185 271.744C460.811 270.902 460.53 269.965 461.654 268.935C462.684 267.999 463.058 267.624 463.807 266.875L464.275 266.407C464.65 266.126 465.118 266.032 465.493 266.407C465.867 266.688 465.867 267.25 465.493 267.624L465.025 268.092C464.182 268.935 463.901 269.31 462.871 270.246C462.59 270.527 462.59 270.527 462.777 271.089C463.901 273.336 465.025 275.677 466.148 278.205C466.429 278.861 466.429 279.891 466.148 280.64C465.212 282.981 464.088 285.228 463.058 287.381C462.777 287.943 462.122 288.786 461.279 289.16C458.938 290.097 456.597 290.846 453.695 291.782C453.226 291.97 453.133 291.97 453.133 292.438C453.226 294.779 453.226 297.307 453.133 300.397C453.133 300.771 453.133 300.865 453.507 300.959C455.661 301.614 458.47 302.55 461.185 303.58C462.028 303.861 462.684 304.704 462.964 305.359C463.433 306.296 463.807 307.232 464.275 308.262C464.837 309.479 465.305 310.697 465.867 311.82C466.429 312.944 466.429 313.88 465.961 314.91C465.399 316.034 464.837 317.158 464.369 318.281C463.807 319.405 463.339 320.435 462.777 321.559C462.59 322.027 462.59 322.12 462.871 322.401C464.088 323.619 464.931 324.368 464.931 324.368C465.305 324.742 465.212 325.21 464.931 325.585C464.556 325.772 464.276 325.866 464.088 325.866Z" fill="black"/>
<path d="M525.232 325.304C525.045 325.304 524.764 325.21 524.671 325.023C524.296 324.742 524.296 324.18 524.671 323.806C525.326 323.15 525.513 322.869 526.169 322.214C526.169 322.12 526.169 321.839 526.169 321.746C525.607 320.528 525.045 319.218 524.39 318C523.828 316.877 523.266 315.753 522.798 314.536C522.517 313.88 522.423 313.038 522.704 312.382C523.64 309.76 524.483 307.419 525.326 305.359C525.607 304.61 526.356 303.955 527.011 303.674C529.071 302.831 531.225 302.082 534.128 301.052C534.502 300.959 534.502 300.865 534.502 300.49C534.409 297.681 534.409 295.06 534.502 292.531C534.502 292.063 534.502 292.063 533.94 291.876C531.974 291.22 529.446 290.284 527.011 289.254C526.169 288.88 525.513 288.13 525.232 287.475C524.39 285.509 523.547 283.355 522.517 280.733C522.236 279.984 522.236 279.235 522.517 278.58C523.079 277.362 523.641 276.145 524.202 274.928C524.764 273.617 525.42 272.4 525.981 271.089C525.981 270.995 525.982 270.714 525.888 270.621C524.858 269.591 523.828 268.467 522.798 267.437C521.955 266.594 521.019 265.658 520.176 264.722C519.989 264.441 519.989 264.441 519.614 264.628C516.992 265.939 514.651 267.062 512.404 267.999C511.749 268.28 510.812 268.373 510.157 268.092L509.127 267.718C508.191 267.437 507.722 267.25 506.412 266.688C505.943 266.501 505.756 266.032 505.943 265.564C506.131 265.096 506.599 264.909 507.067 265.096C508.378 265.658 508.752 265.752 509.689 266.126L510.719 266.501C511 266.594 511.468 266.594 511.749 266.407C513.902 265.471 516.243 264.347 518.865 263.036C519.802 262.568 520.644 262.662 521.393 263.504C522.236 264.441 523.079 265.283 524.015 266.126C525.045 267.156 526.169 268.28 527.199 269.403C527.667 269.965 527.854 270.995 527.573 271.744C527.011 273.055 526.356 274.366 525.794 275.583C525.232 276.801 524.67 277.924 524.109 279.141C524.015 279.329 524.015 279.703 524.109 279.984C525.045 282.606 525.888 284.76 526.731 286.632C526.918 287.007 527.292 287.381 527.573 287.569C530.008 288.599 532.536 289.441 534.409 290.097C535.158 290.378 536.094 290.846 536.094 292.438C536 294.966 536 297.494 536.094 300.397C536.094 301.52 535.626 302.269 534.502 302.644C531.6 303.674 529.446 304.423 527.48 305.266C527.199 305.359 526.824 305.734 526.731 306.015C525.888 308.169 525.045 310.416 524.109 313.038C524.015 313.225 524.109 313.693 524.202 313.974C524.764 315.098 525.232 316.221 525.794 317.345C526.356 318.562 527.011 319.873 527.573 321.09C527.854 321.746 527.854 322.869 527.292 323.431C526.637 324.087 526.45 324.368 525.794 325.023C525.701 325.21 525.42 325.304 525.232 325.304Z" fill="black"/>
<path d="M498.359 339.349C497.235 339.349 496.205 339.349 495.175 339.349C494.707 339.349 494.332 338.975 494.332 338.507C494.332 338.038 494.707 337.664 495.175 337.664C496.205 337.664 497.235 337.664 498.359 337.664C498.733 337.664 498.827 337.664 499.014 337.196C499.857 334.48 500.793 331.952 501.636 329.705C501.917 328.956 502.666 328.3 503.322 328.019C505.569 326.989 507.816 325.959 510.251 325.023C510.906 324.742 511.843 324.648 512.498 325.023C513.341 325.398 513.715 325.585 514.558 325.959C515.026 326.147 515.213 326.709 514.932 327.083C514.745 327.551 514.183 327.738 513.809 327.458C513.06 327.083 512.685 326.896 511.936 326.615C511.655 326.428 511.187 326.521 510.812 326.615C508.472 327.551 506.131 328.581 503.977 329.611C503.602 329.798 503.228 330.173 503.134 330.36C502.292 332.608 501.449 335.042 500.513 337.851C500.325 338.507 499.857 339.349 498.359 339.349Z" fill="black"/>
<path d="M494.332 312.757C489.932 312.757 485.905 311.071 482.815 307.981C479.725 304.891 478.04 300.771 478.04 296.37C478.04 291.97 479.725 287.85 482.815 284.853C485.905 281.763 490.025 280.078 494.52 280.078C503.509 280.078 510.812 287.475 510.812 296.464C510.719 305.453 503.322 312.757 494.332 312.757ZM494.426 281.763C490.4 281.763 486.654 283.261 483.939 286.071C481.224 288.786 479.725 292.531 479.725 296.464C479.725 300.397 481.223 304.142 484.033 306.858C486.748 309.573 490.493 311.165 494.332 311.165C502.385 311.165 509.033 304.61 509.033 296.558C509.033 288.411 502.479 281.763 494.426 281.763C494.426 281.763 494.52 281.763 494.426 281.763Z" fill="black"/>
<path d="M625.142 310.603C624.861 310.603 624.58 310.416 624.393 310.135C622.146 306.296 618.307 307.42 618.213 307.513C617.745 307.607 617.277 307.42 617.183 306.951C617.089 306.483 617.277 306.015 617.745 305.921C619.524 305.359 623.644 305.36 625.891 309.292C626.172 309.667 625.985 310.229 625.61 310.416C625.423 310.603 625.236 310.603 625.142 310.603Z" fill="black"/>
<path d="M619.617 313.88C618.962 313.787 618.494 314.068 618.307 316.502C618.119 319.218 618.775 319.686 619.43 319.686C620.086 319.686 620.647 318.843 620.647 316.877C620.554 315.004 620.46 314.068 619.617 313.88Z" fill="black"/>
<path d="M623.55 358.17C622.894 358.17 622.239 358.17 621.49 358.17C617.464 357.983 604.261 357.047 601.92 350.867C601.265 349.181 602.576 343.657 605.01 334.668C605.385 333.357 605.666 332.327 605.853 331.671C605.946 331.203 606.415 330.922 606.883 331.016C607.351 331.109 607.632 331.578 607.538 332.046C607.351 332.701 607.07 333.825 606.695 335.136C605.572 339.162 603.044 348.713 603.606 350.211C604.823 353.582 611.939 356.017 621.584 356.391C629.917 356.766 633.944 355.548 634.974 347.589C636.659 334.199 639 319.78 639 319.592C639.093 319.124 639.468 318.843 639.936 318.843C640.404 318.937 640.685 319.311 640.685 319.779C640.685 319.967 638.344 334.387 636.659 347.683C635.535 356.204 631.134 358.17 623.55 358.17Z" fill="black"/>
<path d="M621.303 365.099C620.835 365.099 620.46 364.725 620.46 364.257L620.741 357.327C620.741 356.859 621.209 356.485 621.584 356.485C622.052 356.485 622.426 356.859 622.426 357.327L622.145 364.257C622.052 364.725 621.677 365.099 621.303 365.099Z" fill="black"/>
<path d="M582.163 569.974C581.695 569.974 581.32 569.6 581.32 569.132C581.133 552.746 584.036 494.036 584.129 493.474C584.129 493.006 584.504 492.631 585.066 492.631C585.534 492.631 585.908 493.099 585.908 493.568C585.908 494.129 582.912 552.746 583.099 569.132C583.006 569.6 582.631 569.974 582.163 569.974Z" fill="black"/>
<path d="M786.64 570.162H2.22521C1.78517 570.162 1.43323 569.787 1.43323 569.319C1.43323 568.851 1.78517 568.476 2.22521 568.476H786.64C787.08 568.476 787.432 568.851 787.432 569.319C787.432 569.787 787.08 570.162 786.64 570.162Z" fill="black"/>
<path d="M559.222 498.905C544.334 498.905 529.259 494.129 517.648 482.238C504.071 468.38 497.329 449.278 492.647 432.33C487.965 415.569 485.343 400.119 482.628 383.826L481.692 378.208C481.598 377.74 481.973 377.272 482.347 377.272C482.815 377.178 483.284 377.553 483.284 377.927L484.22 383.545C486.935 399.838 489.557 415.288 494.239 431.862C498.921 448.529 505.569 467.443 518.865 481.02C539.559 502.182 571.395 500.122 593.586 488.792C593.961 488.605 594.523 488.699 594.71 489.167C594.898 489.541 594.804 490.103 594.336 490.29C584.036 495.628 571.676 498.905 559.222 498.905Z" fill="black"/>
<path d="M700.987 570.162C700.519 570.162 700.144 569.881 700.144 569.413C700.144 568.945 695.837 525.404 697.99 493.474C700.144 461.638 697.99 418.565 697.99 418.097C697.709 411.543 694.339 403.584 690.687 395.906C687.784 389.819 684.6 385.231 680.668 381.766C675.705 377.366 670.742 375.118 665.124 374.463C652.764 373.058 627.67 373.152 627.389 373.152C622.052 373.433 617.37 374.088 612.314 376.336C604.916 379.613 598.456 386.167 593.212 395.812C589.466 402.647 586.47 410.138 583.567 417.348C582.631 419.595 581.695 421.936 580.758 424.184C578.886 428.772 576.732 433.454 572.893 436.637C568.679 440.195 563.061 440.757 558.473 438.135C553.885 435.514 552.387 430.832 550.889 426.337L550.608 425.401C548.641 419.315 546.675 413.228 544.615 407.142C542.649 401.149 540.776 394.969 538.903 388.883C537.03 382.703 535.064 376.429 533.098 370.343C532.91 369.875 533.191 369.407 533.659 369.313C534.128 369.126 534.596 369.407 534.69 369.875C536.656 375.961 538.622 382.235 540.495 388.415C542.368 394.407 544.24 400.681 546.207 406.58C548.173 412.666 550.139 418.753 552.199 424.839L552.48 425.869C553.885 430.27 555.289 434.484 559.222 436.731C563.155 438.978 568.024 438.416 571.676 435.42C575.234 432.423 577.2 428.116 579.073 423.622C580.009 421.374 580.946 419.127 581.788 416.88C584.691 409.576 587.687 402.085 591.526 395.156C596.957 385.231 603.699 378.396 611.471 374.931C616.808 372.59 621.584 371.935 627.202 371.56C627.483 371.56 652.671 371.466 665.218 372.871C671.211 373.526 676.36 376.055 681.604 380.643C685.63 384.201 689.095 388.976 691.998 395.344C695.65 403.115 699.114 411.262 699.489 418.191C699.489 418.659 701.642 461.825 699.489 493.755C697.335 525.591 701.642 568.945 701.642 569.413C701.923 569.694 701.549 570.068 700.987 570.162C700.987 570.162 701.081 570.162 700.987 570.162Z" fill="black"/>
<path d="M560.159 498.998C557.818 498.998 555.477 498.905 553.042 498.717C552.574 498.717 552.2 498.249 552.293 497.781C552.293 497.313 552.668 497.032 553.136 497.032C621.209 502.65 637.502 424.371 637.689 423.622C637.783 423.153 638.251 422.872 638.719 422.966C639.187 423.06 639.468 423.528 639.375 423.996C639.187 424.652 623.737 498.998 560.159 498.998Z" fill="black"/>
<path d="M712.036 511.639C704.264 511.639 697.897 507.145 697.803 507.051C697.429 506.77 697.335 506.208 697.616 505.834C697.897 505.459 698.365 505.366 698.833 505.647C699.395 506.115 714.002 516.321 725.52 503.493C741.344 485.983 710.632 417.629 682.915 384.014C682.634 383.639 682.634 383.077 683.009 382.796C683.383 382.516 683.945 382.516 684.226 382.89C712.972 417.723 743.404 486.17 726.737 504.617C721.962 509.954 716.718 511.639 712.036 511.639Z" fill="black"/>
<path d="M607.819 332.701C607.632 332.701 607.351 332.608 607.164 332.42C606.976 332.233 603.137 328.019 601.546 324.555C600.703 322.776 601.171 320.716 602.669 319.405C604.729 317.719 609.786 314.536 611.097 313.693C611.565 311.446 613.812 299.835 615.31 297.213C615.497 296.839 616.059 296.651 616.434 296.839C616.808 297.026 616.996 297.588 616.808 297.962C615.591 300.209 613.437 310.509 612.688 314.348C612.595 314.629 612.501 314.817 612.314 314.91C612.22 314.91 605.947 318.843 603.793 320.716C602.95 321.465 602.669 322.776 603.138 323.806C604.636 326.989 608.381 331.203 608.475 331.203C608.756 331.577 608.756 332.046 608.381 332.42C608.194 332.701 608.007 332.701 607.819 332.701Z" fill="black"/>
<path d="M648.083 336.915C644.712 336.915 641.528 335.417 639.281 332.608C639 332.233 639.094 331.671 639.468 331.39C639.843 331.11 640.405 331.109 640.685 331.578C643.401 335.042 648.083 336.166 652.015 334.387C654.263 333.357 656.042 331.484 656.884 329.143C657.727 326.802 657.634 324.18 656.604 321.933C655.574 319.686 653.701 317.907 651.36 317.064C649.019 316.221 646.397 316.315 644.15 317.345C642.652 318 641.341 319.124 640.404 320.435C640.124 320.809 639.562 320.903 639.187 320.622C638.813 320.341 638.719 319.78 639 319.405C640.124 317.813 641.622 316.596 643.401 315.753C646.116 314.536 649.113 314.442 651.922 315.472C654.731 316.502 656.884 318.562 658.195 321.278C659.413 323.993 659.506 326.989 658.476 329.799C657.446 332.608 655.386 334.761 652.671 336.072C651.266 336.634 649.675 336.915 648.083 336.915Z" fill="black"/>
<path d="M649.862 332.608C649.674 332.608 649.487 332.514 649.3 332.42L642.558 326.521C642.371 326.334 642.277 326.053 642.277 325.772C642.277 325.491 642.465 325.21 642.652 325.117L651.547 319.78C651.922 319.592 652.484 319.686 652.765 320.06C653.045 320.435 652.858 320.997 652.484 321.278L644.618 325.959L650.424 331.016C650.798 331.297 650.798 331.859 650.517 332.233C650.33 332.514 650.143 332.608 649.862 332.608Z" fill="black"/>
<path d="M667.559 295.34C667.091 295.34 666.716 294.966 666.716 294.498V264.722C666.716 253.953 657.914 245.152 647.146 245.152H492.928C492.46 245.152 492.085 244.777 492.085 244.309C492.085 243.841 492.46 243.466 492.928 243.466H647.146C658.851 243.466 668.402 253.017 668.402 264.722V294.498C668.402 294.966 668.027 295.34 667.559 295.34Z" fill="black"/>
<path d="M259.213 256.762C259.119 256.762 258.932 256.762 258.838 256.669C258.464 256.482 258.277 255.92 258.464 255.545C262.116 248.054 269.419 243.466 277.378 243.466H327.474C327.942 243.466 328.316 243.841 328.316 244.309C328.316 244.777 327.942 245.152 327.474 245.152H277.378C270.075 245.152 263.427 249.459 260.056 256.294C259.775 256.575 259.494 256.762 259.213 256.762Z" fill="black"/>
<path d="M495.549 543.768H278.126C265.693 543.768 255.548 534.275 255.548 522.642V502.912C255.548 502.447 255.945 502.075 256.443 502.075C256.94 502.075 257.338 502.447 257.338 502.912V522.642C257.338 533.345 266.687 542.093 278.126 542.093H495.549C496.047 542.093 496.444 542.465 496.444 542.931C496.444 543.396 496.047 543.768 495.549 543.768Z" fill="black"/>
<path d="M582.163 543.476H546.02C545.551 543.476 545.177 543.101 545.177 542.633C545.177 542.165 545.551 541.79 546.02 541.79H582.163C582.631 541.79 583.006 542.165 583.006 542.633C583.006 543.101 582.631 543.476 582.163 543.476Z" fill="black"/>
<path d="M667.559 368.002C667.091 368.002 666.716 367.627 666.716 367.159V335.885C666.716 335.417 667.091 335.042 667.559 335.042C668.027 335.042 668.402 335.417 668.402 335.885V367.159C668.402 367.627 668.027 368.002 667.559 368.002Z" fill="black"/>
<path d="M495.924 381.86C489.557 381.86 484.782 381.017 482.628 379.425C481.879 378.864 481.504 378.208 481.317 377.459C480.943 374.556 484.875 372.684 487.872 371.373C488.34 371.186 488.808 371.373 488.995 371.841C489.183 372.309 488.995 372.777 488.527 372.965C484.782 374.463 482.815 375.961 483.003 377.178C483.003 377.459 483.284 377.74 483.658 378.021C486.186 379.987 495.737 381.017 508.846 379.145C515.681 378.208 522.049 376.616 526.731 374.837C531.693 372.871 533.285 371.186 533.191 370.249C533.004 369.126 530.57 367.815 524.202 367.44C523.734 367.44 523.36 366.972 523.36 366.504C523.36 366.036 523.734 365.661 524.202 365.661C530.944 366.036 534.502 367.44 534.877 369.875C535.158 372.028 532.63 374.182 527.386 376.336C522.611 378.208 516.15 379.8 509.127 380.83C504.352 381.579 499.857 381.86 495.924 381.86Z" fill="black"/>
<path d="M524.296 376.991C523.921 376.991 523.547 376.71 523.453 376.336C522.049 371.092 522.049 365.567 522.236 360.417C522.423 356.11 522.236 351.709 522.049 347.402C522.049 346.091 521.955 344.78 521.955 343.469C521.861 338.694 522.985 334.012 525.326 329.143C525.794 328.3 526.169 327.364 525.981 326.709C525.607 325.21 523.079 324.274 521.487 324.274C519.614 324.18 517.648 324.929 515.494 326.521C511.468 329.611 509.689 337.102 508.659 341.597C508.191 343.657 507.91 344.687 507.629 345.248C505.382 348.619 501.074 348.058 499.014 347.215C496.767 346.372 496.58 345.904 495.737 343.563C495.082 341.878 494.052 338.975 491.336 333.638C485.905 323.15 479.445 318.188 473.171 319.686C471.954 319.967 470.362 321.278 469.706 323.15C469.051 325.117 469.519 327.27 471.205 329.518C473.358 332.327 477.01 338.694 480.568 344.968C484.314 351.522 488.527 359.013 489.838 359.949C490.213 360.23 490.306 360.792 490.025 361.167C489.745 361.541 489.183 361.635 488.808 361.354C487.31 360.324 484.126 354.799 479.07 345.904C475.512 339.724 471.86 333.263 469.8 330.641C467.178 327.27 467.366 324.461 468.021 322.682C468.864 320.154 471.111 318.562 472.703 318.094C476.823 317.064 484.969 317.626 492.834 332.889C495.644 338.319 496.674 341.316 497.329 343.001C498.078 344.968 498.078 344.968 499.576 345.623C501.168 346.278 504.445 346.747 506.131 344.312C506.318 344.031 506.692 342.533 506.973 341.222C508.097 336.54 509.876 328.675 514.371 325.21C516.805 323.338 519.24 322.495 521.487 322.589C523.453 322.682 526.918 323.806 527.573 326.334C527.948 327.645 527.293 328.956 526.824 329.986C524.577 334.574 523.453 339.069 523.641 343.469C523.641 344.78 523.734 346.091 523.734 347.402C523.922 351.709 524.015 356.204 523.922 360.511C523.734 365.567 523.734 370.905 525.045 375.961C525.139 376.429 524.858 376.897 524.483 376.991C524.39 376.991 524.39 376.991 524.296 376.991Z" fill="black"/>
<path d="M494.052 381.579C493.677 381.579 493.303 381.298 493.209 380.83C492.741 377.459 491.524 372.965 488.434 371.373C482.909 368.564 476.916 360.23 472.796 349.649C471.111 345.436 468.489 341.877 466.242 338.694C463.339 334.761 460.811 331.297 461.56 328.019C462.59 323.525 466.616 322.308 468.583 322.214C469.051 322.214 469.426 322.588 469.426 323.057C469.426 323.525 469.051 323.899 468.583 323.899C468.395 323.899 464.088 324.087 463.152 328.394C462.59 331.016 464.744 333.918 467.553 337.757C469.894 340.941 472.609 344.593 474.388 349.087C478.227 359.106 484.033 367.253 489.183 369.875C493.022 371.841 494.426 376.804 494.895 380.643C494.988 381.111 494.614 381.579 494.145 381.579C494.052 381.579 494.052 381.579 494.052 381.579Z" fill="black"/>
<path d="M625.704 335.042C623.831 335.042 621.771 334.387 619.805 333.731C616.902 332.795 613.999 331.765 611.377 332.795C610.909 332.982 610.441 332.701 610.254 332.327C610.066 331.859 610.347 331.39 610.722 331.203C613.905 329.986 617.276 331.109 620.273 332.139C622.988 333.076 625.516 333.918 627.389 333.076C630.385 331.765 634.412 314.723 636.378 303.955C629.449 298.43 617.276 297.588 614.467 298.992C614.093 299.18 613.531 299.086 613.344 298.618C613.156 298.243 613.25 297.681 613.718 297.494C617.276 295.621 630.76 297.026 637.876 302.925C638.064 303.112 638.251 303.393 638.157 303.768C637.315 308.543 632.914 332.608 628.138 334.668C627.389 334.855 626.546 335.042 625.704 335.042Z" fill="white"/>
<path d="M655.948 362.197C655.48 362.197 655.105 361.822 655.105 361.447L654.075 346.84C654.075 346.372 654.356 345.998 654.825 345.904C655.293 345.904 655.667 346.185 655.761 346.653L656.791 361.26C656.884 361.728 656.51 362.197 655.948 362.197C655.948 362.197 656.042 362.197 655.948 362.197Z" fill="black"/>
<path d="M646.584 351.054C646.303 351.054 646.116 351.054 645.835 350.96C644.993 350.773 644.431 350.305 644.15 349.462C642.932 345.716 644.712 336.259 644.805 335.791C644.899 335.323 645.273 335.042 645.835 335.136C646.303 335.229 646.584 335.697 646.491 336.166C646.022 338.787 644.899 346.278 645.742 348.994C645.742 349.087 645.835 349.275 646.116 349.275C648.925 349.93 658.757 344.218 666.81 335.229C673.271 328.019 678.233 310.697 674.769 301.52C673.364 297.775 670.555 295.621 666.622 295.247C666.435 295.247 666.248 295.153 666.061 294.966C665.405 294.217 664.75 293.561 664.001 292.906C653.794 283.074 640.779 277.456 629.168 277.924C624.299 278.111 620.554 278.954 618.025 280.359C613.156 283.074 609.692 289.816 610.254 295.34C610.535 298.056 612.688 302.269 614.374 304.329C614.655 304.704 614.655 305.266 614.28 305.547C613.905 305.828 613.344 305.828 613.063 305.453C611.096 303.206 608.849 298.618 608.475 295.528C607.819 289.254 611.658 281.95 617.183 278.861C619.992 277.269 623.925 276.426 629.075 276.239C641.247 275.771 654.731 281.576 665.218 291.689C665.873 292.344 666.529 292.906 667.091 293.561C671.491 294.123 674.675 296.651 676.361 300.959C680.481 311.633 674.301 329.518 668.121 336.447C661.192 344.312 651.079 351.054 646.584 351.054Z" fill="black"/>
<path d="M234.025 379.145C233.369 379.051 233.088 378.583 233.182 378.115C233.182 378.021 235.429 365.286 235.055 357.047C234.68 348.713 238.238 341.69 243.388 340.473C249.1 339.068 262.865 336.353 268.015 340.66C269.513 341.878 270.168 343.657 269.981 345.81C269.794 348.151 268.764 350.211 266.891 351.803C260.43 357.234 246.291 356.016 245.636 355.923C245.168 355.923 244.793 355.455 244.887 354.986C244.887 354.518 245.261 354.144 245.823 354.237C245.917 354.237 259.868 355.455 265.767 350.492C267.359 349.181 268.108 347.589 268.296 345.623C268.389 344.031 267.921 342.814 266.891 341.877C262.209 337.945 248.07 341.035 243.763 342.065C240.111 343.001 236.366 348.432 236.74 356.953C237.115 365.38 234.961 377.834 234.868 378.395C234.774 378.864 234.399 379.145 234.025 379.145Z" fill="black"/>
<path d="M57.334 553.026C31.865 547.315 15.3852 537.67 6.86435 523.718C-3.62286 506.489 -0.0647465 485.421 4.2425 469.035C13.4188 433.734 30.6479 414.445 43.1951 400.4C45.3487 398.059 47.315 395.812 49.0005 393.752C66.4168 373.058 99.8447 361.26 123.815 360.417C124.284 360.417 124.658 360.792 124.658 361.26C124.658 361.728 124.284 362.103 123.815 362.103C100.219 363.039 67.3532 374.556 50.2178 394.875C48.4387 397.029 46.4723 399.183 44.3187 401.617C31.8651 415.569 14.8234 434.671 5.74077 469.503C-0.532834 493.474 0.309751 509.86 8.17516 522.876C16.4151 536.453 32.5205 545.816 57.334 551.435C57.8022 551.528 58.083 551.996 57.9894 552.465C57.9894 552.745 57.7085 553.026 57.334 553.026Z" fill="black"/>
<path d="M220.635 398.808C220.354 398.808 220.073 398.621 219.886 398.434C200.597 365.848 174.379 361.635 153.685 361.635C153.217 361.635 152.843 361.26 152.843 360.792C152.843 360.324 153.217 359.949 153.685 359.949C174.753 359.949 201.533 364.256 221.29 397.591C221.571 397.965 221.384 398.527 221.009 398.714C220.916 398.714 220.822 398.808 220.635 398.808Z" fill="black"/>
<path d="M232.059 506.021C231.122 506.021 230.186 506.021 229.25 505.928C214.642 504.804 199.099 493.38 199.38 465.009C199.38 464.541 199.754 464.166 200.222 464.166C200.691 464.166 201.065 464.541 201.065 465.009C200.784 492.257 215.485 503.212 229.343 504.242C230.186 504.336 231.122 504.336 231.965 504.336C260.805 504.336 267.64 465.009 269.981 451.9C273.446 432.142 281.124 382.796 281.217 382.328C281.311 381.86 281.686 381.486 282.154 381.579C282.622 381.673 282.903 382.047 282.903 382.515C282.809 382.984 275.131 432.33 271.667 452.087C269.232 465.758 262.209 506.021 232.059 506.021Z" fill="black"/>
<path d="M209.211 453.398C208.649 453.398 208.369 452.93 208.369 452.461C209.492 440.476 211.646 429.427 213.331 422.217C219.98 393.845 228.407 371.654 228.5 371.373C228.688 370.905 229.156 370.717 229.624 370.905C230.092 371.092 230.279 371.56 230.092 372.028C229.998 372.216 221.571 394.314 214.923 422.592C213.238 429.708 211.084 440.757 209.96 452.649C210.054 453.117 209.679 453.398 209.211 453.398Z" fill="black"/>
<path d="M212.208 570.162C211.833 570.162 211.458 569.881 211.365 569.506C205.559 543.85 195.166 484.298 199.754 463.604C205.185 438.791 196.477 414.071 196.383 413.79C196.196 413.322 196.477 412.853 196.851 412.666C197.319 412.479 197.787 412.76 197.975 413.134C198.068 413.415 207.058 438.603 201.439 463.885C196.945 484.298 207.338 543.569 213.05 569.038C213.144 569.506 212.863 569.975 212.395 570.068C212.301 570.162 212.208 570.162 212.208 570.162Z" fill="black"/>
<path d="M57.7085 553.12C57.5213 553.12 57.3338 553.12 57.0529 553.026C54.5247 552.464 53.0267 549.187 52.5585 543.382C52.184 538.045 52.7456 531.115 54.2438 523.999C55.742 516.883 57.9893 510.328 60.6111 505.647C63.3265 500.59 66.1357 498.156 68.6639 498.624C69.1321 498.717 69.4129 499.186 69.3193 499.654C69.2256 500.122 68.851 500.403 68.2892 500.309C66.6974 499.935 64.3566 502.276 62.1094 506.396C59.5812 510.984 57.4275 517.351 55.9293 524.28C54.4311 531.209 53.8693 537.951 54.2438 543.195C54.6184 547.97 55.8358 550.966 57.4276 551.341C58.9257 551.622 61.9221 549 64.7312 543.382C64.9185 542.914 65.4803 542.82 65.8548 543.007C66.2293 543.195 66.4165 543.756 66.2293 544.131C64.1693 548.625 60.7985 553.12 57.7085 553.12Z" fill="black"/>
<path d="M113.328 516.228C113.141 516.228 113.047 516.227 112.954 516.134C112.579 515.947 112.392 515.385 112.673 515.01C113.516 513.606 113.984 511.265 112.954 509.111C111.737 506.489 108.459 504.617 103.496 503.774C91.5111 501.714 76.5294 507.519 76.4358 507.613C75.9676 507.8 75.4993 507.613 75.312 507.145C75.1247 506.677 75.312 506.208 75.7802 506.021C76.4356 505.74 91.2302 499.935 103.777 502.088C110.706 503.306 113.422 506.208 114.452 508.362C115.763 511.078 115.107 513.98 114.077 515.853C113.89 516.04 113.609 516.228 113.328 516.228Z" fill="black"/>
<path d="M61.9224 505.928C61.6415 505.928 61.4541 505.834 61.2668 505.553C60.9859 505.179 61.0797 504.617 61.4542 504.336C62.7651 503.306 63.8886 502.557 65.2932 501.714L66.0423 501.246C71.6605 497.594 76.5294 495.159 81.8667 493.661C86.923 492.163 92.1666 492.069 96.8484 492.069C103.497 492.069 108.834 494.41 110.707 498.062C111.737 500.216 111.549 502.463 110.051 504.523C109.77 504.898 109.302 504.991 108.834 504.71C108.459 504.429 108.366 503.868 108.647 503.493C109.77 501.901 109.958 500.309 109.209 498.811C107.71 495.815 102.841 493.849 96.8484 493.755C92.4475 493.755 87.2976 493.849 82.4286 495.347C77.2786 496.845 72.5033 499.092 67.0724 502.744L66.3233 503.212C65.0124 504.149 63.8886 504.804 62.6713 505.74C62.2968 505.928 62.1097 505.928 61.9224 505.928Z" fill="black"/>
<path d="M63.8885 544.225C60.424 544.225 56.7722 543.663 53.3076 542.446C52.8395 542.258 52.6523 541.79 52.746 541.322C52.9332 540.854 53.4014 540.666 53.8695 540.76C60.705 543.101 68.0086 543.007 73.3458 540.573C82.2413 536.453 83.2711 529.056 83.2711 528.775C83.2711 528.494 83.4584 528.307 83.7393 528.119C86.8293 526.434 90.1067 526.434 93.2903 526.527C94.1331 526.527 94.882 526.527 95.7247 526.527C99.9383 526.434 104.152 525.966 108.272 525.217C110.613 524.748 113.235 524.093 114.265 522.033C115.482 519.786 114.265 517.351 112.766 515.947C110.894 514.167 108.459 513.699 105.931 513.138C95.5376 511.078 84.8629 512.669 75.7802 517.632C75.3121 517.819 74.8439 517.726 74.6567 517.258C74.4694 516.883 74.5632 516.321 75.0313 516.134C84.3949 510.984 95.5375 509.298 106.306 511.452C109.021 512.014 111.83 512.576 113.984 514.729C116.418 517.164 117.167 520.347 115.763 522.876C114.358 525.497 111.175 526.434 108.553 526.902C104.339 527.651 100.032 528.119 95.7247 528.213C94.882 528.213 94.0393 528.213 93.1966 528.213C90.2003 528.213 87.3913 528.119 84.8631 529.43C84.4886 531.303 82.6157 538.138 74.0013 542.165C71.0985 543.569 67.5403 544.225 63.8885 544.225Z" fill="black"/>
<path d="M69.2257 500.684C69.1321 500.684 68.9449 500.684 68.8513 500.59C60.705 496.189 56.0232 490.478 54.8059 483.736C51.9032 467.537 69.7876 447.124 85.612 429.146L88.4211 425.963C88.702 425.588 89.2639 425.588 89.6384 425.869C90.013 426.15 90.013 426.712 89.7321 427.086L86.9231 430.27C71.3795 447.967 53.7758 468.005 56.5849 483.455C57.7085 489.729 62.0159 494.879 69.7877 499.092C70.1622 499.279 70.3494 499.841 70.1621 500.216C69.7876 500.497 69.5067 500.684 69.2257 500.684Z" fill="black"/>
<path d="M268.202 387.759C263.707 387.759 258.745 387.291 253.876 386.355C240.579 383.92 227.096 378.396 228.126 372.777C228.5 370.53 230.373 369.219 234.306 368.47C234.774 368.377 235.242 368.657 235.336 369.126C235.429 369.594 235.149 370.062 234.68 370.156C230.748 370.905 230.092 372.028 229.905 373.058C229.343 376.336 239.175 381.954 254.344 384.669C269.419 387.385 280.655 385.606 281.311 382.328C281.685 380.456 279.157 378.208 274.288 375.961C273.82 375.774 273.633 375.212 273.82 374.837C274.007 374.369 274.569 374.182 274.944 374.369C280.749 376.991 283.465 379.8 282.903 382.609C282.154 386.261 275.974 387.759 268.202 387.759Z" fill="black"/>
<path d="M152 343.937C151.625 343.937 151.251 343.937 150.783 343.937C147.88 343.844 143.76 343.563 140.764 343.095C140.295 343.001 140.015 342.627 140.015 342.158C140.108 341.69 140.576 341.316 140.951 341.409C143.854 341.877 147.974 342.158 150.783 342.252C153.592 342.346 155.745 342.065 157.618 341.409C160.614 340.286 162.581 337.945 163.611 334.106C164.547 330.735 164.922 326.896 164.828 322.214C164.828 321.746 165.109 321.371 165.671 321.371C166.139 321.371 166.514 321.746 166.514 322.214C166.607 327.177 166.139 331.109 165.202 334.574C163.985 338.975 161.738 341.69 158.18 343.001C156.588 343.657 154.528 343.937 152 343.937Z" fill="black"/>
<path d="M124.939 328.207C122.223 328.207 119.789 327.177 118.01 325.304C116.231 323.431 115.201 320.997 115.295 318.375C115.295 315.753 116.418 313.318 118.197 311.539C120.07 309.76 122.411 308.824 124.939 308.824C126.999 308.824 128.872 309.479 130.464 310.603C130.838 310.884 130.932 311.352 130.651 311.82C130.37 312.195 129.902 312.288 129.433 312.008C128.123 311.071 126.624 310.603 124.939 310.603C122.692 310.603 120.725 311.446 119.227 312.85C117.729 314.348 116.793 316.315 116.793 318.468C116.793 320.622 117.542 322.682 119.04 324.18C120.538 325.678 122.505 326.615 124.658 326.615C126.156 326.615 127.561 326.24 128.778 325.491C129.153 325.21 129.714 325.398 129.902 325.772C130.183 326.147 129.995 326.708 129.621 326.896C128.31 327.738 126.624 328.207 124.939 328.207Z" fill="black"/>
<path d="M123.16 323.899C122.879 323.899 122.692 323.806 122.504 323.618C122.224 323.244 122.223 322.682 122.598 322.401L127.467 318.188L121.568 314.255C121.194 313.974 121.1 313.506 121.381 313.038C121.662 312.663 122.13 312.569 122.598 312.85L129.433 317.439C129.621 317.626 129.808 317.813 129.808 318.094C129.808 318.375 129.714 318.656 129.527 318.749L123.815 323.618C123.534 323.899 123.347 323.899 123.16 323.899Z" fill="black"/>
<path d="M158.929 323.712C158.648 323.712 158.461 323.619 158.274 323.338C157.993 322.963 158.086 322.401 158.461 322.12C159.491 321.278 161.551 318.749 161.645 317.158C161.645 316.689 161.551 316.596 161.457 316.502C160.989 316.034 159.397 316.783 158.555 317.251C157.618 317.719 156.963 318 156.401 317.813C156.214 317.719 155.933 317.438 155.839 317.158C155.558 316.408 154.06 308.449 153.779 306.858C153.685 306.389 153.966 305.921 154.434 305.828C154.903 305.734 155.371 306.015 155.465 306.483C156.026 309.479 156.869 314.161 157.244 315.94C157.431 315.847 157.618 315.753 157.712 315.659C159.116 315.004 161.27 313.88 162.581 315.285C162.862 315.659 163.236 316.221 163.143 317.251C162.955 319.499 160.521 322.495 159.304 323.431C159.304 323.618 159.116 323.712 158.929 323.712Z" fill="black"/>
<path d="M152.468 330.922C151.251 330.922 150.22 330.641 149.284 330.08C146.569 328.394 146.101 324.93 146.007 324.836C145.913 324.368 146.288 323.9 146.756 323.9C147.224 323.806 147.692 324.18 147.692 324.649C147.692 324.649 148.161 327.458 150.127 328.675C151.344 329.424 152.842 329.518 154.809 328.862C155.277 328.675 155.745 328.956 155.839 329.424C156.026 329.892 155.745 330.36 155.277 330.454C154.341 330.735 153.311 330.922 152.468 330.922Z" fill="black"/>
<path d="M164.173 322.963C162.768 322.963 161.644 322.495 160.427 321.278C160.053 320.997 160.053 320.435 160.427 320.06C160.802 319.686 161.27 319.686 161.644 320.06C162.862 321.184 163.704 321.278 164.734 321.184C166.326 320.997 167.731 319.686 168.761 317.345C169.791 314.91 170.165 311.633 169.884 308.262C169.51 304.891 168.48 301.895 166.982 299.648C165.577 297.588 163.985 296.558 162.3 296.745C160.708 296.932 159.303 298.243 158.273 300.584C157.243 303.019 156.869 306.296 157.15 309.667C157.431 312.382 157.899 314.068 158.742 315.847C158.929 316.221 158.742 316.783 158.367 316.97C157.899 317.158 157.431 316.97 157.243 316.596C156.307 314.629 155.839 312.757 155.558 309.854C155.184 306.202 155.558 302.738 156.775 299.929C157.992 297.026 159.959 295.247 162.113 295.06C164.36 294.779 166.607 296.09 168.386 298.711C170.072 301.146 171.195 304.517 171.57 308.169C171.944 311.82 171.476 315.285 170.352 318.094C169.135 320.997 167.169 322.776 165.015 322.963C164.641 322.963 164.453 322.963 164.173 322.963Z" fill="black"/>
<path d="M143.76 323.899C139.453 323.899 135.614 318.281 134.771 310.79C133.928 303.019 136.831 296.464 141.325 295.996C141.513 295.996 141.7 295.996 141.793 295.996C146.101 295.996 149.94 301.614 150.783 309.105C151.625 316.877 148.723 323.431 144.228 323.899C144.134 323.899 143.947 323.899 143.76 323.899ZM141.887 297.681C141.794 297.681 141.7 297.681 141.513 297.681C138.048 298.056 135.801 303.955 136.456 310.603C137.112 317.251 140.67 322.589 144.041 322.12C147.505 321.746 149.753 315.847 149.097 309.199C148.535 302.831 145.258 297.681 141.887 297.681Z" fill="black"/>
<path d="M150.127 311.259C149.846 311.259 149.659 311.165 149.472 310.978C149.191 310.603 149.191 310.041 149.565 309.76C152.843 306.858 155.839 308.356 156.963 309.573C157.244 309.948 157.244 310.416 156.963 310.79C156.588 311.071 156.12 311.071 155.745 310.79C155.558 310.603 153.592 308.637 150.783 311.071C150.502 311.165 150.314 311.259 150.127 311.259Z" fill="black"/>
<path d="M153.03 379.8C144.696 379.8 126.437 364.725 124.096 362.852C123.909 362.665 123.815 362.477 123.815 362.197L122.973 335.604C122.973 335.136 123.347 334.761 123.815 334.761C124.283 334.761 124.658 335.136 124.658 335.604L125.501 361.822C134.677 369.406 150.501 380.362 154.434 377.834C157.15 376.148 154.528 365.193 151.906 357.983C151.812 357.702 151.906 343.376 151.906 343.376C151.906 342.907 152.281 342.533 152.749 342.533C153.217 342.533 153.592 342.907 153.592 343.376L153.498 357.515C154.715 360.979 160.052 376.335 155.277 379.238C154.715 379.613 153.966 379.8 153.03 379.8Z" fill="black"/>
<path d="M117.448 288.318C117.261 288.318 110.8 286.726 110.8 286.726C110.332 286.632 110.051 286.164 110.145 285.696C110.239 285.228 110.707 284.947 111.175 285.041L117.636 286.539C118.104 286.632 118.385 287.101 118.291 287.569C118.198 288.037 117.916 288.318 117.448 288.318Z" fill="black"/>
<path d="M252.471 340.566C252.003 340.566 251.628 340.192 251.628 339.724V332.701C251.628 332.514 251.628 332.233 251.628 332.046C251.628 331.765 251.816 331.578 252.003 331.39C252.19 331.203 252.471 331.203 252.752 331.297C259.306 333.357 266.516 333.357 272.977 331.297C273.258 331.203 273.446 331.297 273.726 331.39C273.914 331.578 274.101 331.765 274.101 332.046C274.101 332.233 274.101 332.514 274.101 332.701V337.945C274.101 338.413 273.726 338.787 273.258 338.787C272.79 338.787 272.415 338.413 272.415 337.945V333.263C266.235 335.042 259.494 335.042 253.314 333.263V339.817C253.314 340.192 252.939 340.566 252.471 340.566Z" fill="black"/>
<path d="M262.865 334.48C259.213 334.48 255.655 333.918 252.19 332.795C237.77 328.113 228.032 314.817 228.032 299.648C228.032 280.452 243.669 264.815 262.865 264.815C282.06 264.815 297.697 280.452 297.697 299.648C297.697 314.91 287.959 328.207 273.446 332.795C270.075 333.918 266.517 334.48 262.865 334.48ZM262.865 266.501C244.606 266.501 229.718 281.389 229.718 299.648C229.718 314.068 238.988 326.802 252.659 331.203C259.213 333.263 266.423 333.263 272.884 331.203C286.648 326.802 295.918 314.161 295.918 299.648C296.012 281.389 281.124 266.501 262.865 266.501Z" fill="black"/>
<path d="M242.452 314.629C242.077 314.629 241.703 314.629 241.422 314.629C240.954 314.629 240.579 314.255 240.579 313.787C240.579 313.319 241.048 313.038 241.422 312.944C243.388 313.038 246.197 312.944 248.07 311.352C248.445 311.071 248.726 310.697 249.006 310.322C248.164 309.76 247.508 309.011 246.947 308.262C245.261 306.109 244.606 303.393 244.887 300.678C244.98 299.741 245.917 295.996 247.789 294.966C248.445 294.591 249.194 294.591 249.943 294.872C251.254 295.528 251.816 297.307 252.096 298.524C252.565 300.21 252.752 301.708 252.752 303.206C252.752 304.517 252.565 307.326 251.254 309.854C253.876 311.259 257.434 311.914 262.209 311.727C264.925 311.633 267.266 311.259 269.232 310.509C271.573 309.667 273.446 308.262 274.663 306.483C272.322 305.172 271.011 303.3 270.73 301.333C270.543 300.21 270.824 298.992 271.386 297.775C271.854 296.839 272.603 295.715 273.914 295.247C275.037 294.966 275.786 295.247 276.255 295.621C278.034 296.932 278.034 300.397 278.034 301.052C278.034 302.644 277.659 304.236 277.004 305.64C280.281 306.858 284.12 306.951 287.865 306.951C288.334 306.951 288.708 307.326 288.708 307.794C288.708 308.262 288.334 308.637 287.865 308.637C283.839 308.637 279.719 308.543 276.161 307.139C274.756 309.292 272.509 310.978 269.794 312.008C267.64 312.85 265.206 313.225 262.209 313.319C257.059 313.506 253.22 312.757 250.317 311.165C249.943 311.633 249.568 312.101 249.006 312.57C247.227 314.255 244.606 314.629 242.452 314.629ZM249.006 296.277C248.913 296.277 248.819 296.277 248.726 296.37C247.696 296.932 246.853 299.554 246.666 300.771C246.385 303.019 246.947 305.359 248.351 307.139C248.819 307.7 249.381 308.262 249.943 308.73C250.692 307.139 251.16 305.172 251.16 303.019C251.16 301.708 250.973 300.397 250.598 299.086C250.318 297.962 249.943 296.558 249.287 296.277C249.194 296.277 249.1 296.277 249.006 296.277ZM274.85 296.745C274.756 296.745 274.569 296.745 274.476 296.839C273.727 297.12 273.165 297.962 272.977 298.43C272.509 299.367 272.416 300.21 272.509 301.052C272.696 302.457 273.727 303.861 275.412 304.798C276.255 303.674 276.536 302.363 276.536 300.959C276.536 299.367 276.161 297.494 275.412 296.932C275.225 296.839 275.131 296.745 274.85 296.745Z" fill="black"/>
<path d="M76.7165 570.162C76.0611 570.068 75.7802 569.6 75.8739 569.132C78.4021 558.832 81.1174 547.502 83.7392 536.546L85.7994 527.745C85.893 527.277 86.3611 526.996 86.8292 527.089C87.2974 527.183 87.5783 527.651 87.4846 528.119L85.4247 536.921C82.8029 547.876 80.0875 559.206 77.5594 569.506C77.3721 569.881 77.0911 570.162 76.7165 570.162Z" fill="black"/>
<path d="M93.6647 493.755C93.1029 493.661 92.7284 493.287 92.822 492.819C97.5975 452.649 86.3612 420.625 86.2675 420.344C86.0803 419.876 86.361 419.408 86.8292 419.221C87.2974 419.033 87.7655 419.314 87.9528 419.783C88.0464 420.064 99.3765 452.555 94.601 493.006C94.5074 493.38 94.1329 493.755 93.6647 493.755Z" fill="black"/>
<path d="M263.146 366.785C260.524 366.785 257.996 366.504 255.748 365.661C250.692 363.695 251.16 358.17 252.19 355.548C252.377 355.08 252.846 354.893 253.314 355.08C253.782 355.267 253.969 355.736 253.782 356.204C253.688 356.485 251.535 362.384 256.404 364.163C259.587 365.38 263.52 365.287 267.546 365.006C271.666 364.725 276.536 364.35 280.749 362.665C281.686 362.29 282.996 361.728 283.839 360.792C285.618 358.732 285.244 355.455 284.682 353.114C284.588 352.927 284.588 352.646 284.495 352.458C284.307 351.99 284.588 351.522 285.056 351.335C285.524 351.147 285.993 351.428 286.18 351.897C286.274 352.178 286.367 352.365 286.367 352.646C287.397 356.766 287.023 359.856 285.15 361.916C284.026 363.133 282.622 363.788 281.498 364.257C277.004 366.036 272.041 366.504 267.734 366.785C266.142 366.691 264.644 366.785 263.146 366.785Z" fill="black"/>
<path d="M274.288 375.68C271.385 375.68 268.576 375.305 265.955 374.931C262.022 374.369 258.183 373.62 255.28 371.56C252.565 369.687 251.816 366.785 253.127 363.133C253.314 362.665 253.782 362.477 254.25 362.665C254.718 362.852 254.906 363.32 254.718 363.788C253.688 366.691 254.157 368.845 256.217 370.249C258.838 372.028 262.49 372.777 266.236 373.339C270.075 373.901 274.569 374.463 278.876 373.714C279.813 373.526 281.124 373.246 282.06 372.496C284.12 370.905 284.495 367.534 284.495 365.099C284.495 363.882 284.307 362.852 284.026 362.009C283.839 361.541 284.12 361.073 284.588 360.886C285.056 360.698 285.525 360.979 285.712 361.447C286.086 362.477 286.274 363.695 286.274 365.099C286.367 369.313 285.337 372.216 283.184 373.901C281.966 374.837 280.468 375.212 279.251 375.493C277.472 375.586 275.88 375.68 274.288 375.68Z" fill="black"/>
<path d="M262.958 358.451C260.43 358.451 257.996 358.17 255.748 357.327C254.812 356.953 254.063 356.485 253.501 355.923C253.126 355.642 253.126 355.08 253.501 354.706C253.875 354.331 254.344 354.331 254.718 354.706C255.186 355.174 255.748 355.455 256.404 355.736C259.587 356.953 263.52 356.766 267.546 356.485C271.666 356.204 276.535 355.736 280.749 354.05C281.685 353.676 282.996 353.114 283.745 352.177C285.15 350.586 285.431 347.964 284.494 344.406C283.558 341.035 281.872 339.349 278.97 339.068C276.535 338.881 267.734 338.788 262.49 339.911C262.115 340.005 261.554 339.724 261.46 339.256C261.366 338.788 261.647 338.319 262.115 338.226C267.546 337.008 276.442 337.102 279.064 337.383C282.715 337.664 284.963 339.818 286.086 343.938C287.21 348.058 286.742 351.147 284.963 353.207C283.933 354.425 282.434 355.08 281.311 355.548C276.816 357.327 271.854 357.796 267.64 358.077C266.048 358.357 264.456 358.451 262.958 358.451Z" fill="black"/>
<path d="M226.628 278.767C226.44 278.767 226.253 278.673 226.16 278.58L170.54 236.724C170.165 236.444 170.072 235.882 170.352 235.507C170.633 235.133 171.195 235.039 171.57 235.32L227.19 277.175C227.564 277.456 227.658 278.018 227.377 278.392C227.19 278.673 226.909 278.767 226.628 278.767Z" fill="black"/>
<path d="M209.211 345.436C209.024 345.436 208.743 345.342 208.556 345.155C208.275 344.78 208.275 344.312 208.556 343.938L228.688 324.93C229.062 324.555 229.53 324.649 229.905 324.93C230.186 325.304 230.186 325.772 229.905 326.147L209.773 345.155C209.586 345.342 209.399 345.436 209.211 345.436Z" fill="black"/>
<path d="M264.737 241.594C264.269 241.594 263.895 241.219 263.895 240.751V212.098C263.895 211.63 264.269 211.255 264.737 211.255C265.206 211.255 265.58 211.63 265.58 212.098V240.844C265.58 241.219 265.206 241.594 264.737 241.594Z" fill="black"/>
<path d="M299.383 278.767C299.102 278.767 298.821 278.58 298.634 278.299C298.446 277.924 298.54 277.362 299.008 277.175L318.391 266.688C318.765 266.407 319.327 266.594 319.514 267.062C319.702 267.437 319.608 267.999 319.14 268.186L299.757 278.673C299.664 278.767 299.476 278.767 299.383 278.767Z" fill="black"/>
<path d="M309.027 333.825C308.84 333.825 308.653 333.731 308.465 333.638L296.293 322.776C295.918 322.495 295.918 321.933 296.199 321.559C296.48 321.184 297.042 321.184 297.417 321.465L309.589 332.327C309.964 332.608 309.964 333.169 309.683 333.544C309.496 333.731 309.308 333.825 309.027 333.825Z" fill="black"/>
<path d="M266.985 387.478C266.704 387.478 266.423 387.291 266.235 387.01C266.048 386.636 266.142 386.074 266.61 385.886C270.636 383.733 273.258 375.118 273.258 375.025C273.352 374.556 273.82 374.276 274.288 374.463C274.756 374.556 275.037 375.025 274.85 375.493C274.756 375.867 271.947 384.95 267.359 387.385C267.172 387.385 267.078 387.478 266.985 387.478Z" fill="black"/>
<path d="M608.381 340.754C606.508 340.754 605.197 340.192 605.104 340.098C604.635 339.911 604.542 339.349 604.729 338.975C604.916 338.6 605.478 338.319 605.853 338.6C606.04 338.694 610.066 340.473 614.561 336.447C614.935 336.166 615.404 336.166 615.778 336.54C616.059 336.915 616.059 337.383 615.685 337.758C612.875 340.192 610.254 340.754 608.381 340.754Z" fill="white"/>
<path d="M610.16 377.366C610.067 377.366 609.879 377.366 609.786 377.272C609.317 377.085 609.224 376.523 609.411 376.148C610.628 373.62 614.842 365.193 616.621 364.163C618.775 362.946 655.667 360.511 662.034 360.511C664.843 360.511 670.087 370.53 672.241 374.744C672.428 375.212 672.241 375.68 671.866 375.867C671.492 376.055 670.93 375.867 670.743 375.493C667.184 368.377 663.252 362.29 662.034 362.197C654.45 362.197 619.524 364.725 617.37 365.661C616.527 366.129 613.25 371.935 610.909 376.897C610.722 377.178 610.441 377.366 610.16 377.366Z" fill="black"/>
<path d="M454.444 278.767C443.863 278.767 435.342 266.032 435.342 250.489C435.342 234.852 443.957 222.211 454.444 222.211C461.186 222.211 467.272 227.267 470.736 235.788C470.924 236.256 470.736 236.724 470.268 236.912C469.8 237.099 469.332 236.912 469.145 236.444C465.961 228.578 460.436 223.99 454.35 223.99C444.706 223.99 436.934 235.882 436.934 250.583C436.934 265.283 444.706 277.175 454.35 277.175C457.534 277.175 460.062 276.145 462.59 273.992C462.965 273.711 463.433 273.711 463.807 274.085C464.088 274.46 464.088 274.928 463.714 275.302C460.998 277.643 458.096 278.767 454.444 278.767Z" fill="black"/>
<path d="M477.733 101.327C474.368 102.255 469.987 102.17 468.583 100.765C465.68 97.8624 466.335 92.9934 466.335 92.7125C466.429 92.2443 466.804 91.9634 467.272 91.9634C467.74 92.057 468.021 92.4316 468.021 92.8997C468.021 92.8997 467.459 97.207 469.8 99.4542C471.111 100.765 476.516 99.7352 479.138 99.4542C479.606 99.3606 480.074 99.7351 480.074 100.203C480.168 100.672 479.794 101.046 479.325 101.14C478.764 101.233 478.202 101.327 477.733 101.327Z" fill="black"/>
<path d="M429.536 81.1016C429.349 81.1016 429.068 81.0079 428.975 80.8207C423.45 75.2962 421.39 66.3071 424.012 58.9099C425.323 55.1645 427.664 52.3554 430.567 51.0445C433.001 49.9208 435.248 49.5463 437.402 49.7335C436.934 48.8908 436.559 47.9545 436.185 47.0181C434.218 40.1827 437.215 33.2537 443.582 30.1637C445.642 29.1337 447.889 28.6655 450.792 28.4782C452.758 28.3846 455.567 28.2909 458.095 29.3209C460.904 30.4446 463.339 32.7855 464.463 35.5009C464.65 35.9691 464.463 36.4373 463.994 36.6245C463.526 36.8118 463.058 36.6245 462.871 36.1563C461.935 33.9091 459.781 31.7555 457.44 30.8191C455.661 30.1637 453.695 29.8827 450.885 30.07C448.17 30.2573 446.11 30.7255 444.237 31.5682C438.619 34.2837 435.904 40.37 437.683 46.3627C438.151 47.9545 438.9 49.2654 439.93 50.2017C440.211 50.4826 440.305 50.9508 440.024 51.2318C439.836 51.6063 439.462 51.6999 438.994 51.6063C436.559 50.8572 433.937 51.0445 431.035 52.449C427.664 53.9472 426.072 57.4117 425.323 59.2844C422.888 66.1198 424.761 74.3598 429.817 79.4161C430.192 79.7907 430.192 80.2588 429.817 80.6334C429.911 81.1016 429.724 81.1016 429.536 81.1016Z" fill="black"/>
<path d="M493.771 48.61C493.583 48.61 493.396 48.5163 493.209 48.4227C492.834 48.1418 492.834 47.58 493.115 47.2054C495.644 44.3964 497.048 41.0255 497.048 37.8419C497.048 35.9691 495.831 33.6282 493.864 31.5682C489.463 27.1674 482.628 24.8264 477.291 25.8564C474.482 26.4182 471.673 27.9164 469.332 30.1637C468.302 31.1001 467.459 32.2237 466.523 33.8155C466.054 34.5646 463.995 37.6546 463.995 37.6546L462.59 36.7182C462.59 36.7182 464.65 33.7219 465.118 32.9728C466.148 31.381 467.178 30.0701 468.208 29.0401C470.83 26.5119 473.826 24.9201 477.01 24.2647C482.909 23.141 490.4 25.6692 495.175 30.4446C497.516 32.7855 498.827 35.501 498.827 37.8419C498.827 41.3064 497.235 45.1454 494.52 48.329C494.239 48.5163 493.958 48.61 493.771 48.61Z" fill="black"/>
<path d="M489.37 75.4834C488.996 75.4834 488.621 75.2026 488.527 74.828C488.434 74.3598 488.714 73.8916 489.183 73.798C492.928 72.8616 494.988 70.6144 497.142 67.9926C498.733 66.1198 499.951 62.8426 500.232 59.9399C500.419 57.5054 499.764 54.79 498.265 51.8872C497.61 50.67 496.018 48.4227 494.614 47.58C494.239 47.3927 494.052 46.8309 494.333 46.4563C494.614 46.0818 495.082 45.8945 495.456 46.1754C497.329 47.299 499.108 49.9208 499.764 51.1381C501.449 54.3217 502.198 57.3181 501.917 60.1272C501.636 63.4044 500.232 66.9626 498.453 69.1162C496.205 71.8316 493.771 74.3598 489.557 75.4834C489.464 75.4834 489.37 75.4834 489.37 75.4834Z" fill="black"/>
<path d="M514.09 245.152C513.621 245.152 513.247 244.777 513.247 244.309C512.311 207.885 502.292 176.985 502.198 176.704C502.011 176.236 502.291 175.767 502.76 175.674C503.228 175.487 503.696 175.767 503.79 176.236C503.883 176.517 513.996 207.697 514.932 244.403C515.026 244.777 514.651 245.152 514.09 245.152C514.183 245.152 514.183 245.152 514.09 245.152Z" fill="black"/>
<path d="M124.845 309.854C124.658 309.854 124.471 309.76 124.377 309.667C124.003 309.386 123.909 308.918 124.19 308.449C128.778 301.801 124.845 289.067 124.752 288.973C124.658 288.692 124.752 288.318 124.939 288.13C125.22 287.943 125.501 287.85 125.782 287.943C125.969 288.037 144.603 294.217 163.33 290.097C163.798 290.003 164.266 290.284 164.36 290.752C164.453 291.22 164.173 291.689 163.704 291.782C147.693 295.434 131.681 291.501 126.812 290.097C127.748 293.842 129.715 303.58 125.595 309.573C125.314 309.76 125.126 309.854 124.845 309.854Z" fill="black"/>
<path d="M122.411 336.447C117.916 336.447 108.834 329.799 101.718 315.94C95.7249 304.142 97.8784 295.809 100.688 290.846C103.028 286.726 106.399 284.198 108.178 283.73C109.677 281.389 119.508 267.812 141.981 269.31C150.315 269.872 156.775 272.774 161.27 277.924C166.982 284.572 167.918 293.468 167.637 297.307C167.637 297.775 167.169 298.056 166.701 298.056C166.233 298.056 165.858 297.588 165.952 297.12C165.952 297.026 166.701 286.726 159.959 278.954C155.839 274.179 149.753 271.463 141.887 270.902C118.478 269.403 109.583 284.666 109.489 284.853C109.302 285.134 109.115 285.228 108.834 285.321C107.991 285.415 104.62 287.381 102.186 291.689C99.564 296.277 97.5975 304.142 103.216 315.191C110.519 329.424 119.789 335.417 122.786 334.761C125.127 334.293 124.846 329.33 124.658 327.645C124.565 327.177 124.939 326.709 125.407 326.709C125.875 326.615 126.344 326.989 126.344 327.458C126.437 327.832 127.561 335.604 123.16 336.54C122.879 336.447 122.692 336.447 122.411 336.447Z" fill="black"/>
<path d="M97.4101 294.591C93.3837 294.591 86.0802 293.374 79.432 285.977C75.4057 281.482 74.9376 274.928 78.3084 268.467C82.0539 261.163 90.6682 254.141 101.53 255.264C106.867 255.732 110.894 257.792 113.703 261.257C118.478 267.437 117.355 275.771 117.355 276.145C117.261 276.613 116.886 276.988 116.418 276.894C115.95 276.801 115.669 276.426 115.669 275.958C115.669 275.864 116.793 267.905 112.392 262.381C109.957 259.291 106.306 257.512 101.436 257.043C91.4174 256.107 83.3647 262.474 79.9002 269.31C76.9039 275.115 77.2784 281.014 80.8366 284.947C89.732 294.966 100.219 292.812 100.313 292.812C100.781 292.719 101.249 293 101.343 293.468C101.436 293.936 101.156 294.404 100.687 294.498C100.313 294.31 99.1892 294.591 97.4101 294.591Z" fill="black"/>
<path d="M163.423 296.09C162.955 296.09 162.581 295.715 162.581 295.247V291.689C162.581 291.22 162.955 290.846 163.423 290.846C163.891 290.846 164.266 291.22 164.266 291.689V295.247C164.36 295.715 163.891 296.09 163.423 296.09Z" fill="black"/>
<path d="M449.2 512.857H310.432C309.963 512.857 309.589 512.482 309.589 512.014V429.427C309.589 428.959 309.963 428.584 310.432 428.584C310.9 428.584 311.274 428.959 311.274 429.427V511.171H449.2C449.668 511.171 450.043 511.546 450.043 512.014C450.043 512.482 449.668 512.857 449.2 512.857Z" fill="black"/>
<path d="M677.849 570.162H2.11548C1.73641 570.162 1.43323 569.787 1.43323 569.319C1.43323 568.851 1.73641 568.476 2.11548 568.476H677.849C678.229 568.476 678.532 568.851 678.532 569.319C678.532 569.787 678.229 570.162 677.849 570.162Z" fill="black"/>
<path d="M517.654 515.707C490.941 514.933 487.166 509.997 487.166 509.997V512.61C481.94 512.126 459.679 511.642 459.195 537.387C458.614 566.52 487.166 567.778 487.166 567.778V571.456C487.166 571.456 492.005 575.812 518.622 575.812C545.238 575.812 548.045 570.972 548.045 570.972V510.093C548.045 509.9 544.367 516.481 517.654 515.707ZM468.583 534.58C469.938 520.546 486.876 521.998 486.876 521.998L487.263 519.578V558.1C479.714 556.067 467.228 548.518 468.583 534.58Z" fill="black"/>
<path d="M517.654 515.707C534.438 515.707 548.045 512.934 548.045 509.513C548.045 506.092 534.438 503.318 517.654 503.318C500.869 503.318 487.263 506.092 487.263 509.513C487.263 512.934 500.869 515.707 517.654 515.707Z" fill="white"/>
<path d="M487.263 559.261C486.779 559.164 468.583 554.906 467.422 537.194C467.131 532.161 468.486 528.289 471.39 525.386C477.1 519.869 486.779 520.837 487.263 520.933C487.94 521.03 488.424 521.611 488.328 522.289C488.231 522.966 487.65 523.45 487.069 523.353C486.973 523.353 478.068 522.482 473.132 527.128C470.712 529.451 469.648 532.741 469.938 537C470.906 552.97 486.973 556.745 487.65 556.938C488.328 557.132 488.715 557.712 488.521 558.39C488.231 558.874 487.747 559.261 487.263 559.261Z" fill="black"/>
<path d="M486.586 568.843C486.198 568.843 456.098 565.552 458.13 537.194C458.711 528.386 461.808 521.708 467.131 517.255C475.552 510.287 486.586 511.545 487.069 511.545C487.747 511.642 488.231 512.223 488.134 512.9C488.037 513.578 487.457 513.965 486.779 513.965C486.682 513.965 476.326 512.803 468.68 519.191C463.841 523.159 461.131 529.354 460.55 537.387C458.711 563.52 485.618 566.423 486.779 566.52C487.457 566.617 487.941 567.197 487.844 567.778C487.65 568.359 487.166 568.843 486.586 568.843Z" fill="black"/>
<path d="M517.848 576.779C514.557 576.779 486.102 576.586 486.102 570.779C486.102 570.101 486.682 569.617 487.263 569.617C487.941 569.617 488.424 570.101 488.424 570.779C489.295 572.134 500.329 574.36 517.848 574.36C536.624 574.36 546.206 571.843 546.98 570.585C546.98 569.908 547.464 569.424 548.142 569.424C548.819 569.424 549.303 570.004 549.303 570.682C549.303 576.683 521.042 576.779 517.848 576.779Z" fill="black"/>
<path d="M548.045 572.037C547.368 572.037 546.884 571.553 546.884 570.875V509.997C546.884 509.319 547.464 508.835 548.045 508.835C548.723 508.835 549.207 509.319 549.207 509.997V570.875C549.303 571.456 548.723 572.037 548.045 572.037Z" fill="black"/>
<path d="M487.263 572.521C486.586 572.521 486.102 572.037 486.102 571.359V509.513C486.102 508.835 486.682 508.351 487.263 508.351C487.941 508.351 488.424 508.835 488.424 509.513V571.359C488.424 571.94 487.844 572.521 487.263 572.521Z" fill="black"/>
<path d="M517.654 516.868C505.943 516.868 486.005 515.417 486.005 509.9C486.005 504.383 505.846 502.931 517.654 502.931C529.365 502.931 549.303 504.383 549.303 509.9C549.303 515.417 529.365 516.868 517.654 516.868ZM517.654 505.351C499.168 505.351 488.812 508.351 488.424 509.9C488.812 511.448 499.168 514.449 517.654 514.449C536.14 514.449 546.496 511.448 546.884 509.9C546.496 508.351 536.14 505.351 517.654 505.351Z" fill="black"/>
<path d="M726.536 213.358L726.805 213.278L726.877 213.007L742.995 152.854L755.352 165.81L741.533 217.384L716.803 224.674L699.19 206.138L713.026 154.502L730.013 149.431L713.914 209.511L713.842 209.781L714.034 209.984L719.049 215.281L719.26 215.503L719.554 215.417L726.536 213.358ZM702.442 143.051L702.172 143.13L702.099 143.402L688.341 194.746L679.242 185.485L693.078 133.847L745.2 118.695L782.821 157.894L768.986 209.528L756.609 212.952L770.349 161.74L770.425 161.456L770.214 161.252L770.103 161.144L741.975 131.77L741.765 131.551L741.474 131.636L702.442 143.051Z" stroke="black"/>
<path d="M752.008 151.865L735.659 212.878L728.677 214.937L723.663 209.641L739.993 148.696L721.88 154.103L707.899 206.28L725.917 225.24L751.209 217.784L765.173 165.668L752.008 151.865V151.865ZM754.617 118.13L701.933 133.446L687.95 185.631L697.863 195.72L711.847 143.531L750.879 132.116L779.013 161.496L779.131 161.61L765.165 213.667L778.66 209.933L792.642 157.751L754.617 118.13Z" fill="#FC4040"/>
</svg>
