<?xml version="1.0" encoding="UTF-8"?>
<svg width="48px" height="48px" viewBox="0 0 48 48" version="1.1" xmlns="http://www.w3.org/2000/svg" xmlns:xlink="http://www.w3.org/1999/xlink">
    <!-- Generator: Sketch 49.2 (51160) - http://www.bohemiancoding.com/sketch -->
    <title>behance-square-brands</title>
    <desc>Created with Sketch.</desc>
    <defs></defs>
    <g id="Page-1" stroke="none" stroke-width="1" fill="none" fill-rule="evenodd">
        <g id="Artboard" transform="translate(-560.000000, -320.000000)" fill="#053EFF" fill-rule="nonzero">
            <g id="Logos" transform="translate(92.000000, 320.000000)">
                <g id="behance-square-brands" transform="translate(468.000000, 0.000000)">
                    <path d="M19.9821429,27.9642857 C19.9821429,30.0321429 18.4821429,30.6857143 16.6392857,30.6857143 L11.8071429,30.6857143 L11.8071429,25.0178571 L16.7357143,25.0178571 C18.7285714,25.0285714 19.9821429,25.8535714 19.9821429,27.9642857 Z M19.1571429,19.1464286 C19.1571429,17.25 17.6892857,16.8 16.0607143,16.8 L11.8178571,16.8 L11.8178571,21.6 L16.3928571,21.6 C18.0107143,21.6 19.1571429,20.8928571 19.1571429,19.1464286 Z M33.3321429,21.6321429 C31.3714286,21.6321429 30.0642857,22.8535714 29.9357143,24.8142857 L36.6,24.8142857 C36.4178571,22.8321429 35.3892857,21.6321429 33.3321429,21.6321429 Z M48,5.14285714 L48,42.8571429 C48,45.6964286 45.6964286,48 42.8571429,48 L5.14285714,48 C2.30357143,48 0,45.6964286 0,42.8571429 L0,5.14285714 C0,2.30357143 2.30357143,0 5.14285714,0 L42.8571429,0 C45.6964286,0 48,2.30357143 48,5.14285714 Z M29.1107143,16.3928571 L37.4464286,16.3928571 L37.4464286,14.3678571 L29.1107143,14.3678571 L29.1107143,16.3928571 Z M24.5035714,28.2107143 C24.5035714,25.6285714 23.2821429,23.4 20.7535714,22.6821429 C22.5964286,21.8035714 23.5607143,20.7857143 23.5607143,18.7178571 C23.5607143,14.625 20.5071429,13.6285714 16.9821429,13.6285714 L7.28571429,13.6285714 L7.28571429,34.2 L17.2607143,34.2 C21,34.1785714 24.5035714,32.3892857 24.5035714,28.2107143 Z M40.7142857,26.625 C40.7142857,22.2214286 38.1321429,18.5464286 33.4714286,18.5464286 C28.9285714,18.5464286 25.8535714,21.9535714 25.8535714,26.4321429 C25.8535714,31.0714286 28.7785714,34.2535714 33.4714286,34.2535714 C37.0285714,34.2535714 39.3321429,32.6571429 40.4464286,29.2392857 L36.8357143,29.2392857 C36.4392857,30.5142857 34.8428571,31.1785714 33.6,31.1785714 C31.2,31.1785714 29.9464286,29.775 29.9464286,27.3964286 L40.6821429,27.3964286 C40.6928571,27.15 40.7142857,26.8821429 40.7142857,26.625 Z" id="Shape"></path>
                </g>
            </g>
        </g>
    </g>
</svg>