<?xml version="1.0" encoding="UTF-8"?>
<svg width="48px" height="41px" viewBox="0 0 48 41" version="1.1" xmlns="http://www.w3.org/2000/svg" xmlns:xlink="http://www.w3.org/1999/xlink">
    <!-- Generator: Sketch 49.2 (51160) - http://www.bohemiancoding.com/sketch -->
    <title>twitter-brands</title>
    <desc>Created with Sketch.</desc>
    <defs></defs>
    <g id="Page-1" stroke="none" stroke-width="1" fill="none" fill-rule="evenodd">
        <g id="Artboard" transform="translate(-320.000000, -324.000000)" fill="#00ACEE" fill-rule="nonzero">
            <g id="Logos" transform="translate(92.000000, 320.000000)">
                <g id="twitter-brands" transform="translate(228.000000, 4.000000)">
                    <path d="M43.0661057,10.1381483 C43.0965746,10.5830631 43.0965746,11.0280757 43.0965746,11.4729905 C43.0965746,25.0434783 33.1981297,40.6798654 15.1066528,40.6798654 C9.53300599,40.6798654 4.35536076,38.9953915 0,36.0716518 C0.791909343,36.1669348 1.55325607,36.1987284 2.37563428,36.1987284 C6.97455849,36.1987284 11.2081375,34.5779394 14.5888695,31.8129721 C10.2639776,31.7175913 6.63958844,28.7619602 5.39083356,24.6939443 C6.00002344,24.7892273 6.60911957,24.8528145 7.24877832,24.8528145 C8.13200052,24.8528145 9.01531647,24.7256401 9.83760093,24.5032805 C5.32998957,23.5497659 1.94916386,19.4182606 1.94916386,14.4286216 L1.94916386,14.301545 C3.25876273,15.064298 4.78173743,15.5410064 6.39583748,15.6044957 C3.74607713,13.7611516 2.0101016,10.6148567 2.0101016,7.05534278 C2.0101016,5.14850924 2.49732226,3.40054589 3.35016934,1.87503993 C8.1928445,8.10414035 15.4720917,12.1720584 23.6344673,12.617071 C23.4822167,11.854318 23.3908101,11.0598693 23.3908101,10.2653227 C23.3908101,4.60821365 27.7766398,0 33.228411,0 C36.0608909,0 38.6192446,1.23946136 40.4162516,3.24167571 C42.6395416,2.79676092 44.7715186,1.93862714 46.6599323,0.76275298 C45.9288669,3.14639273 44.3756108,5.14860707 42.3350404,6.41976421 C44.3147669,6.19740464 46.2335556,5.62521763 48,4.83076887 C46.6601198,6.86467899 44.9848945,8.67613172 43.0661057,10.1381483 Z" id="Shape"></path>
                </g>
            </g>
        </g>
    </g>
</svg>