<?xml version="1.0" encoding="UTF-8"?>
<svg width="48px" height="48px" viewBox="0 0 48 48" version="1.1" xmlns="http://www.w3.org/2000/svg" xmlns:xlink="http://www.w3.org/1999/xlink">
    <!-- Generator: Sketch 49.2 (51160) - http://www.bohemiancoding.com/sketch -->
    <title>linkedin-brands</title>
    <desc>Created with Sketch.</desc>
    <defs></defs>
    <g id="Page-1" stroke="none" stroke-width="1" fill="none" fill-rule="evenodd">
        <g id="Artboard" transform="translate(-800.000000, -320.000000)" fill="#0E76A8" fill-rule="nonzero">
            <g id="Logos" transform="translate(92.000000, 320.000000)">
                <g id="linkedin-brands" transform="translate(708.000000, 0.000000)">
                    <path d="M44.5714286,0 L3.41785714,0 C1.53214286,0 0,1.55357143 0,3.46071429 L0,44.5392857 C0,46.4464286 1.53214286,48 3.41785714,48 L44.5714286,48 C46.4571429,48 48,46.4464286 48,44.5392857 L48,3.46071429 C48,1.55357143 46.4571429,0 44.5714286,0 Z M14.5071429,41.1428571 L7.39285714,41.1428571 L7.39285714,18.2357143 L14.5178571,18.2357143 L14.5178571,41.1428571 L14.5071429,41.1428571 Z M10.95,15.1071429 C8.66785714,15.1071429 6.825,13.2535714 6.825,10.9821429 C6.825,8.71071429 8.66785714,6.85714286 10.95,6.85714286 C13.2214286,6.85714286 15.075,8.71071429 15.075,10.9821429 C15.075,13.2642857 13.2321429,15.1071429 10.95,15.1071429 Z M41.175,41.1428571 L34.0607143,41.1428571 L34.0607143,30 C34.0607143,27.3428571 34.0071429,23.925 30.3642857,23.925 C26.6571429,23.925 26.0892857,26.8178571 26.0892857,29.8071429 L26.0892857,41.1428571 L18.975,41.1428571 L18.975,18.2357143 L25.8,18.2357143 L25.8,21.3642857 L25.8964286,21.3642857 C26.85,19.5642857 29.175,17.6678571 32.6357143,17.6678571 C39.8357143,17.6678571 41.175,22.4142857 41.175,28.5857143 L41.175,41.1428571 Z" id="Shape"></path>
                </g>
            </g>
        </g>
    </g>
</svg>