<?xml version="1.0" encoding="UTF-8"?>
<svg width="48px" height="48px" viewBox="0 0 48 48" version="1.1" xmlns="http://www.w3.org/2000/svg" xmlns:xlink="http://www.w3.org/1999/xlink">
    <!-- Generator: Sketch 49.2 (51160) - http://www.bohemiancoding.com/sketch -->
    <title>dribbble-brands</title>
    <desc>Created with Sketch.</desc>
    <defs></defs>
    <g id="Page-1" stroke="none" stroke-width="1" fill="none" fill-rule="evenodd">
        <g id="Artboard" transform="translate(-440.000000, -320.000000)" fill="#EA4C89" fill-rule="nonzero">
            <g id="Logos" transform="translate(92.000000, 320.000000)">
                <g id="dribbble-brands" transform="translate(348.000000, 0.000000)">
                    <path d="M24,0 C10.7663226,0 0,10.7663226 0,24 C0,37.2336774 10.7663226,48 24,48 C37.2336774,48 48,37.2336774 48,24 C48,10.7663226 37.2336774,0 24,0 Z M39.8680645,11.0676774 C42.7231935,14.556 44.4521613,18.999 44.4972581,23.8375161 C43.8213871,23.6945806 37.0439032,22.3199032 30.222871,23.1777097 C29.6662258,21.8189032 29.1408387,20.6235484 28.4212258,19.1505484 C36.0006774,16.056 39.435871,11.6522903 39.8680645,11.0676774 Z M37.589129,8.69709677 C37.2204194,9.22229032 34.1345806,13.3699355 26.8451613,16.1021613 C23.4859355,9.93029032 19.7627419,4.86009677 19.196129,4.1013871 C25.6970323,2.53432258 32.5476774,4.22429032 37.589129,8.69709677 Z M15.2846129,5.47935484 C15.8250968,6.22054839 19.4882903,11.2970323 22.8849677,17.3350645 C13.2959032,19.8814839 4.85012903,19.8448065 3.93329032,19.8327097 C5.26258065,13.4714516 9.54948387,8.18448387 15.2846129,5.47935484 Z M3.50032258,24.0312581 C3.50032258,23.8216452 3.50448387,23.613 3.51077419,23.4048387 C4.40767742,23.4232258 14.3417419,23.5512581 24.5790968,20.4874839 C25.1659355,21.636 25.7265484,22.8018387 26.2410968,23.9664194 C18.8282903,26.0543226 12.0932903,32.0496774 8.77035484,37.7379677 C5.49619355,34.1037097 3.50032258,29.2964516 3.50032258,24.0312581 Z M11.417129,40.2034839 C13.5584516,35.8260968 19.3698387,30.1755484 27.6344516,27.356129 C30.5125161,34.835129 31.7027419,41.1031935 32.0075806,42.9017419 C25.4160968,45.7094516 17.49,44.939129 11.417129,40.2034839 Z M35.4539032,41.025 C35.2438065,39.7779677 34.1526774,33.7769032 31.4714516,26.4089032 C37.8953226,25.3805806 43.5391935,27.063871 44.2405161,27.2851935 C43.3267742,32.9891613 40.0528065,37.9152581 35.4539032,41.025 Z" id="Shape"></path>
                </g>
            </g>
        </g>
    </g>
</svg>