<?xml version="1.0" encoding="UTF-8"?>
<svg width="48px" height="48px" viewBox="0 0 48 48" version="1.1" xmlns="http://www.w3.org/2000/svg" xmlns:xlink="http://www.w3.org/1999/xlink">
    <!-- Generator: Sketch 49.2 (51160) - http://www.bohemiancoding.com/sketch -->
    <title>instagram-brands</title>
    <desc>Created with Sketch.</desc>
    <defs></defs>
    <g id="Page-1" stroke="none" stroke-width="1" fill="none" fill-rule="evenodd">
        <g id="Artboard" transform="translate(-680.000000, -320.000000)" fill="#E1306C" fill-rule="nonzero">
            <g id="Logos" transform="translate(92.000000, 320.000000)">
                <g id="instagram-brands" transform="translate(588.000000, 0.000000)">
                    <path d="M24.0053542,11.6934062 C17.1948689,11.6934062 11.7015059,17.1879951 11.7015059,24 C11.7015059,30.8120049 17.1948689,36.3065938 24.0053542,36.3065938 C30.8158394,36.3065938 36.3092025,30.8120049 36.3092025,24 C36.3092025,17.1879951 30.8158394,11.6934062 24.0053542,11.6934062 Z M24.0053542,32.0008926 C19.6042387,32.0008926 16.0062465,28.4128082 16.0062465,24 C16.0062465,19.5871918 19.5935304,15.9991074 24.0053542,15.9991074 C28.4171779,15.9991074 32.0044618,19.5871918 32.0044618,24 C32.0044618,28.4128082 28.4064696,32.0008926 24.0053542,32.0008926 Z M39.6823201,11.1900033 C39.6823201,12.7858976 38.3973229,14.0604708 36.812493,14.0604708 C35.2169548,14.0604708 33.9426659,12.7751869 33.9426659,11.1900033 C33.9426659,9.60481981 35.2276631,8.31953587 36.812493,8.31953587 C38.3973229,8.31953587 39.6823201,9.60481981 39.6823201,11.1900033 Z M47.8313441,14.1033136 C47.6493028,10.2581725 46.7712214,6.85217003 43.9549359,4.04596675 C41.1493586,1.23976347 37.744116,0.36148611 33.8998327,0.168693518 C29.9377579,-0.0562311726 18.0622421,-0.0562311726 14.1001673,0.168693518 C10.2665923,0.35077541 6.86134969,1.22905277 4.04506414,4.03525605 C1.22877858,6.84145933 0.361405466,10.2474618 0.168655884,14.0926029 C-0.056218628,18.0555618 -0.056218628,29.9337275 0.168655884,33.8966864 C0.350697156,37.7418275 1.22877858,41.14783 4.04506414,43.9540332 C6.86134969,46.7602365 10.255884,47.6385139 14.1001673,47.8313065 C18.0622421,48.0562312 29.9377579,48.0562312 33.8998327,47.8313065 C37.744116,47.6492246 41.1493586,46.7709472 43.9549359,43.9540332 C46.7605131,41.14783 47.6385945,37.7418275 47.8313441,33.8966864 C48.0562186,29.9337275 48.0562186,18.0662725 47.8313441,14.1033136 Z M42.7127719,38.1488341 C41.8775237,40.2481312 40.2605689,41.8654468 38.1510318,42.7115921 C34.9920803,43.9647439 27.4962632,43.6755551 24.0053542,43.6755551 C20.5144451,43.6755551 13.0079197,43.9540332 9.85967652,42.7115921 C7.76084774,41.8761575 6.14389292,40.2588419 5.29793642,38.1488341 C4.04506414,34.9891777 4.33418851,27.4916881 4.33418851,24 C4.33418851,20.5083119 4.05577245,13.0001116 5.29793642,9.8511659 C6.13318461,7.75186879 7.75013943,6.13455316 9.85967652,5.2884079 C13.018628,4.03525605 20.5144451,4.32444494 24.0053542,4.32444494 C27.4962632,4.32444494 35.0027886,4.04596675 38.1510318,5.2884079 C40.2498606,6.12384246 41.8668154,7.74115809 42.7127719,9.8511659 C43.9656442,13.0108223 43.6765198,20.5083119 43.6765198,24 C43.6765198,27.4916881 43.9656442,34.9998884 42.7127719,38.1488341 Z" id="Shape"></path>
                </g>
            </g>
        </g>
    </g>
</svg>