<?xml version="1.0" encoding="UTF-8"?>
<svg width="50px" height="36px" viewBox="0 0 50 36" version="1.1" xmlns="http://www.w3.org/2000/svg" xmlns:xlink="http://www.w3.org/1999/xlink">
    <!-- Generator: Sketch 49.2 (51160) - http://www.bohemiancoding.com/sketch -->
    <title>youtube-brands</title>
    <desc>Created with Sketch.</desc>
    <defs></defs>
    <g id="Page-1" stroke="none" stroke-width="1" fill="none" fill-rule="evenodd">
        <g id="Artboard" transform="translate(-199.000000, -326.000000)" fill="#C4302B" fill-rule="nonzero">
            <g id="Logos" transform="translate(92.000000, 320.000000)">
                <g id="youtube-brands" transform="translate(107.000000, 6.000000)">
                    <path d="M48.7885036,5.63278125 C48.2154197,3.41559375 46.5269161,1.66940625 44.3830292,1.0768125 C40.4970803,0 24.9148723,0 24.9148723,0 C24.9148723,0 9.33275547,0 5.44671533,1.0768125 C3.30282847,1.6695 1.61432482,3.41559375 1.04124088,5.63278125 C0,9.6515625 0,18.036375 0,18.036375 C0,18.036375 0,26.4211875 1.04124088,30.4399687 C1.61432482,32.6571562 3.30282847,34.3305937 5.44671533,34.9231875 C9.33275547,36 24.9148723,36 24.9148723,36 C24.9148723,36 40.4969891,36 44.3830292,34.9231875 C46.5269161,34.3305937 48.2154197,32.6571562 48.7885036,30.4399687 C49.8297445,26.4211875 49.8297445,18.036375 49.8297445,18.036375 C49.8297445,18.036375 49.8297445,9.6515625 48.7885036,5.63278125 Z M19.8186131,25.6491562 L19.8186131,10.4235937 L32.8422445,18.0365625 L19.8186131,25.6491562 Z" id="Shape"></path>
                </g>
            </g>
        </g>
    </g>
</svg>